<mxfile host="app.diagrams.net" modified="2022-02-24T16:13:39.712Z" agent="5.0 (Windows NT 10.0; Win64; x64) AppleWebKit/537.36 (KHTML, like Gecko) Chrome/98.0.4758.102 Safari/537.36 Edg/98.0.1108.56" etag="zQCCz6wb6dfyPQ9t9CEl" version="16.6.3" type="github">
  <diagram id="MqHUhfrrWIdtyrn8XvhO" name="Page-1">
    <mxGraphModel dx="942" dy="653" grid="1" gridSize="10" guides="1" tooltips="1" connect="1" arrows="1" fold="1" page="1" pageScale="1" pageWidth="3300" pageHeight="4681" math="0" shadow="0">
      <root>
        <mxCell id="0" />
        <mxCell id="1" parent="0" />
        <mxCell id="OKn4Y-EZjeskhZOx6g82-79" value="" style="rounded=0;whiteSpace=wrap;html=1;labelBackgroundColor=none;fontFamily=Times New Roman;fontSize=8;fillColor=none;" parent="1" vertex="1">
          <mxGeometry x="180" y="40" width="160" height="680" as="geometry" />
        </mxCell>
        <mxCell id="LxgAofAfpHLzP516k_iO-2" value="" style="endArrow=classic;html=1;rounded=0;fontFamily=Times New Roman;fontSize=10;startSize=1;endSize=1;strokeWidth=1;jumpSize=1;entryX=0;entryY=0.5;entryDx=0;entryDy=0;" parent="1" target="OKn4Y-EZjeskhZOx6g82-7" edge="1">
          <mxGeometry width="50" height="50" relative="1" as="geometry">
            <mxPoint x="140" y="120" as="sourcePoint" />
            <mxPoint x="260.4300000000002" y="121" as="targetPoint" />
            <Array as="points" />
          </mxGeometry>
        </mxCell>
        <mxCell id="LxgAofAfpHLzP516k_iO-3" value="&lt;font style=&quot;font-size: 8px;&quot;&gt;ser_bit0&lt;/font&gt;" style="edgeLabel;html=1;align=center;verticalAlign=middle;resizable=0;points=[];fontFamily=Times New Roman;fontSize=8;" parent="LxgAofAfpHLzP516k_iO-2" vertex="1" connectable="0">
          <mxGeometry x="-0.8568" y="1" relative="1" as="geometry">
            <mxPoint x="-28" y="1" as="offset" />
          </mxGeometry>
        </mxCell>
        <mxCell id="OKn4Y-EZjeskhZOx6g82-7" value="rs0" style="whiteSpace=wrap;html=1;aspect=fixed;fontFamily=Times New Roman;fontSize=10;" parent="1" vertex="1">
          <mxGeometry x="260.43" y="100" width="40" height="40" as="geometry" />
        </mxCell>
        <mxCell id="OKn4Y-EZjeskhZOx6g82-15" value="" style="shape=stencil(vZXRboMgFIafxtsGZU13u7jtchfLXoAqraQIBpjWPf2OgF3VahujS4zK+T0fx184BjjWGSloEKEswK9BFIUIwRnGVW9MdEET44IlUYzsOXWKNkqeaMVS4xlMZFQx06j4LUAv8Exz4DiRQgCESaE7ypUOMMIE5KKzg/np686oAH5ODVW+SBcNove52E20XYu8W4682a5jRvg/Hi9mRLgWuFtxuNaHWwwczsfiGCJjGxLHe5Kcjkp+i3SYNaodpKI3hD9ZGM1+mm5jL7a8JzT92jbJ1Nxm2esjZjVZB5IzXsPY39i8L7BGQ+yDVnD+lDkRd0iMc9fhJh4qSNP7BkIr57KkdzrabXIL4ExcAS492SOWYDzPYPR2C3oIkXCpp6yE+IibODb0bOwyUJ0CLq/UdcXvuZJwdhQulrM0bX9bYwX0JwmnJtnNnGR0RVkDBvvIRt2f2gZ+AQ==);whiteSpace=wrap;html=1;verticalAlign=middle;spacingTop=0;spacingLeft=5;rotation=90;fontFamily=Times New Roman;fontSize=10;autosize=0;" parent="1" vertex="1">
          <mxGeometry x="276.06" y="144.63" width="8.75" height="40" as="geometry" />
        </mxCell>
        <mxCell id="OKn4Y-EZjeskhZOx6g82-16" value="" style="endArrow=classic;html=1;rounded=0;fontFamily=Times New Roman;fontSize=10;exitX=1;exitY=0.5;exitDx=0;exitDy=0;jumpSize=1;strokeWidth=1;endSize=1;startSize=1;" parent="1" source="OKn4Y-EZjeskhZOx6g82-15" edge="1">
          <mxGeometry width="50" height="50" relative="1" as="geometry">
            <mxPoint x="230.43" y="239" as="sourcePoint" />
            <mxPoint x="280.43" y="179" as="targetPoint" />
          </mxGeometry>
        </mxCell>
        <mxCell id="OKn4Y-EZjeskhZOx6g82-18" value="" style="endArrow=classic;html=1;rounded=0;fontFamily=Times New Roman;fontSize=10;jumpSize=1;strokeWidth=1;endSize=1;startSize=1;entryX=0;entryY=0.25;entryDx=0;entryDy=0;exitX=0.75;exitY=1;exitDx=0;exitDy=0;" parent="1" source="OKn4Y-EZjeskhZOx6g82-7" target="OKn4Y-EZjeskhZOx6g82-15" edge="1">
          <mxGeometry width="50" height="50" relative="1" as="geometry">
            <mxPoint x="290.43" y="179" as="sourcePoint" />
            <mxPoint x="290.43" y="159" as="targetPoint" />
          </mxGeometry>
        </mxCell>
        <mxCell id="OKn4Y-EZjeskhZOx6g82-21" value="" style="endArrow=classic;html=1;rounded=0;fontFamily=Times New Roman;fontSize=10;startSize=1;endSize=1;strokeWidth=1;jumpSize=1;entryX=0;entryY=0.75;entryDx=0;entryDy=0;" parent="1" target="OKn4Y-EZjeskhZOx6g82-15" edge="1">
          <mxGeometry width="50" height="50" relative="1" as="geometry">
            <mxPoint x="140.43" y="149" as="sourcePoint" />
            <mxPoint x="250.43" y="159" as="targetPoint" />
            <Array as="points">
              <mxPoint x="270.43" y="149" />
            </Array>
          </mxGeometry>
        </mxCell>
        <mxCell id="OKn4Y-EZjeskhZOx6g82-22" value="" style="endArrow=classic;html=1;rounded=0;fontFamily=Times New Roman;fontSize=10;startSize=1;endSize=1;strokeWidth=1;jumpSize=1;entryX=0.485;entryY=0.883;entryDx=0;entryDy=0;entryPerimeter=0;" parent="1" edge="1">
          <mxGeometry width="50" height="50" relative="1" as="geometry">
            <mxPoint x="200.43" y="165" as="sourcePoint" />
            <mxPoint x="265.1149999999999" y="165.4987500000001" as="targetPoint" />
            <Array as="points" />
          </mxGeometry>
        </mxCell>
        <mxCell id="OKn4Y-EZjeskhZOx6g82-23" value="rs1" style="whiteSpace=wrap;html=1;aspect=fixed;fontFamily=Times New Roman;fontSize=10;" parent="1" vertex="1">
          <mxGeometry x="260.43" y="180" width="40" height="40" as="geometry" />
        </mxCell>
        <mxCell id="OKn4Y-EZjeskhZOx6g82-24" value="" style="shape=stencil(vZXRboMgFIafxtsGZU13u7jtchfLXoAqraQIBpjWPf2OgF3VahujS4zK+T0fx184BjjWGSloEKEswK9BFIUIwRnGVW9MdEET44IlUYzsOXWKNkqeaMVS4xlMZFQx06j4LUAv8Exz4DiRQgCESaE7ypUOMMIE5KKzg/np686oAH5ODVW+SBcNove52E20XYu8W4682a5jRvg/Hi9mRLgWuFtxuNaHWwwczsfiGCJjGxLHe5Kcjkp+i3SYNaodpKI3hD9ZGM1+mm5jL7a8JzT92jbJ1Nxm2esjZjVZB5IzXsPY39i8L7BGQ+yDVnD+lDkRd0iMc9fhJh4qSNP7BkIr57KkdzrabXIL4ExcAS492SOWYDzPYPR2C3oIkXCpp6yE+IibODb0bOwyUJ0CLq/UdcXvuZJwdhQulrM0bX9bYwX0JwmnJtnNnGR0RVkDBvvIRt2f2gZ+AQ==);whiteSpace=wrap;html=1;verticalAlign=middle;spacingTop=0;spacingLeft=5;rotation=90;fontFamily=Times New Roman;fontSize=10;autosize=0;" parent="1" vertex="1">
          <mxGeometry x="276.06" y="224.63" width="8.75" height="40" as="geometry" />
        </mxCell>
        <mxCell id="OKn4Y-EZjeskhZOx6g82-25" value="" style="endArrow=classic;html=1;rounded=0;fontFamily=Times New Roman;fontSize=10;exitX=1;exitY=0.5;exitDx=0;exitDy=0;jumpSize=1;strokeWidth=1;endSize=1;startSize=1;" parent="1" source="OKn4Y-EZjeskhZOx6g82-24" edge="1">
          <mxGeometry width="50" height="50" relative="1" as="geometry">
            <mxPoint x="230.43" y="319" as="sourcePoint" />
            <mxPoint x="280.43" y="259" as="targetPoint" />
          </mxGeometry>
        </mxCell>
        <mxCell id="OKn4Y-EZjeskhZOx6g82-26" value="" style="endArrow=classic;html=1;rounded=0;fontFamily=Times New Roman;fontSize=10;jumpSize=1;strokeWidth=1;endSize=1;startSize=1;entryX=0;entryY=0.25;entryDx=0;entryDy=0;exitX=0.75;exitY=1;exitDx=0;exitDy=0;" parent="1" source="OKn4Y-EZjeskhZOx6g82-23" target="OKn4Y-EZjeskhZOx6g82-24" edge="1">
          <mxGeometry width="50" height="50" relative="1" as="geometry">
            <mxPoint x="290.43" y="259" as="sourcePoint" />
            <mxPoint x="290.43" y="239" as="targetPoint" />
          </mxGeometry>
        </mxCell>
        <mxCell id="OKn4Y-EZjeskhZOx6g82-27" value="" style="endArrow=classic;html=1;rounded=0;fontFamily=Times New Roman;fontSize=10;startSize=1;endSize=1;strokeWidth=1;jumpSize=5;entryX=0;entryY=0.75;entryDx=0;entryDy=0;jumpStyle=arc;" parent="1" target="OKn4Y-EZjeskhZOx6g82-24" edge="1">
          <mxGeometry width="50" height="50" relative="1" as="geometry">
            <mxPoint x="140.43" y="229" as="sourcePoint" />
            <mxPoint x="250.43" y="239" as="targetPoint" />
            <Array as="points">
              <mxPoint x="270.43" y="229" />
            </Array>
          </mxGeometry>
        </mxCell>
        <mxCell id="OKn4Y-EZjeskhZOx6g82-28" value="" style="endArrow=classic;html=1;rounded=0;fontFamily=Times New Roman;fontSize=10;startSize=1;endSize=1;strokeWidth=1;jumpSize=1;entryX=0.618;entryY=0.877;entryDx=0;entryDy=0;entryPerimeter=0;" parent="1" target="OKn4Y-EZjeskhZOx6g82-24" edge="1">
          <mxGeometry width="50" height="50" relative="1" as="geometry">
            <mxPoint x="200" y="246" as="sourcePoint" />
            <mxPoint x="265.1149999999999" y="246.4987500000001" as="targetPoint" />
          </mxGeometry>
        </mxCell>
        <mxCell id="OKn4Y-EZjeskhZOx6g82-29" value="rs2" style="whiteSpace=wrap;html=1;aspect=fixed;fontFamily=Times New Roman;fontSize=10;" parent="1" vertex="1">
          <mxGeometry x="260.43" y="260" width="40" height="40" as="geometry" />
        </mxCell>
        <mxCell id="OKn4Y-EZjeskhZOx6g82-30" value="" style="shape=stencil(vZXRboMgFIafxtsGZU13u7jtchfLXoAqraQIBpjWPf2OgF3VahujS4zK+T0fx184BjjWGSloEKEswK9BFIUIwRnGVW9MdEET44IlUYzsOXWKNkqeaMVS4xlMZFQx06j4LUAv8Exz4DiRQgCESaE7ypUOMMIE5KKzg/np686oAH5ODVW+SBcNove52E20XYu8W4682a5jRvg/Hi9mRLgWuFtxuNaHWwwczsfiGCJjGxLHe5Kcjkp+i3SYNaodpKI3hD9ZGM1+mm5jL7a8JzT92jbJ1Nxm2esjZjVZB5IzXsPY39i8L7BGQ+yDVnD+lDkRd0iMc9fhJh4qSNP7BkIr57KkdzrabXIL4ExcAS492SOWYDzPYPR2C3oIkXCpp6yE+IibODb0bOwyUJ0CLq/UdcXvuZJwdhQulrM0bX9bYwX0JwmnJtnNnGR0RVkDBvvIRt2f2gZ+AQ==);whiteSpace=wrap;html=1;verticalAlign=middle;spacingTop=0;spacingLeft=5;rotation=90;fontFamily=Times New Roman;fontSize=10;autosize=0;" parent="1" vertex="1">
          <mxGeometry x="276.06" y="304.63" width="8.75" height="40" as="geometry" />
        </mxCell>
        <mxCell id="OKn4Y-EZjeskhZOx6g82-31" value="" style="endArrow=classic;html=1;rounded=0;fontFamily=Times New Roman;fontSize=10;exitX=1;exitY=0.5;exitDx=0;exitDy=0;jumpSize=1;strokeWidth=1;endSize=1;startSize=1;" parent="1" source="OKn4Y-EZjeskhZOx6g82-30" edge="1">
          <mxGeometry width="50" height="50" relative="1" as="geometry">
            <mxPoint x="230.43" y="399" as="sourcePoint" />
            <mxPoint x="280.43" y="339" as="targetPoint" />
          </mxGeometry>
        </mxCell>
        <mxCell id="OKn4Y-EZjeskhZOx6g82-32" value="" style="endArrow=classic;html=1;rounded=0;fontFamily=Times New Roman;fontSize=10;jumpSize=1;strokeWidth=1;endSize=1;startSize=1;entryX=0;entryY=0.25;entryDx=0;entryDy=0;exitX=0.75;exitY=1;exitDx=0;exitDy=0;" parent="1" source="OKn4Y-EZjeskhZOx6g82-29" target="OKn4Y-EZjeskhZOx6g82-30" edge="1">
          <mxGeometry width="50" height="50" relative="1" as="geometry">
            <mxPoint x="290.43" y="339" as="sourcePoint" />
            <mxPoint x="290.43" y="319" as="targetPoint" />
          </mxGeometry>
        </mxCell>
        <mxCell id="OKn4Y-EZjeskhZOx6g82-33" value="" style="endArrow=classic;html=1;rounded=0;fontFamily=Times New Roman;fontSize=10;startSize=1;endSize=1;strokeWidth=1;jumpSize=1;entryX=0;entryY=0.75;entryDx=0;entryDy=0;" parent="1" target="OKn4Y-EZjeskhZOx6g82-30" edge="1">
          <mxGeometry width="50" height="50" relative="1" as="geometry">
            <mxPoint x="140.43" y="309" as="sourcePoint" />
            <mxPoint x="250.43" y="319" as="targetPoint" />
            <Array as="points">
              <mxPoint x="270.43" y="309" />
            </Array>
          </mxGeometry>
        </mxCell>
        <mxCell id="OKn4Y-EZjeskhZOx6g82-34" value="" style="endArrow=classic;html=1;rounded=0;fontFamily=Times New Roman;fontSize=10;startSize=1;endSize=1;strokeWidth=1;jumpSize=1;entryX=0.485;entryY=0.883;entryDx=0;entryDy=0;entryPerimeter=0;" parent="1" edge="1">
          <mxGeometry width="50" height="50" relative="1" as="geometry">
            <mxPoint x="200.43" y="325" as="sourcePoint" />
            <mxPoint x="265.1149999999999" y="325.4987500000002" as="targetPoint" />
          </mxGeometry>
        </mxCell>
        <mxCell id="OKn4Y-EZjeskhZOx6g82-35" value="rs3" style="whiteSpace=wrap;html=1;aspect=fixed;fontFamily=Times New Roman;fontSize=10;" parent="1" vertex="1">
          <mxGeometry x="260.43" y="340" width="40" height="40" as="geometry" />
        </mxCell>
        <mxCell id="OKn4Y-EZjeskhZOx6g82-36" value="" style="shape=stencil(vZXRboMgFIafxtsGZU13u7jtchfLXoAqraQIBpjWPf2OgF3VahujS4zK+T0fx184BjjWGSloEKEswK9BFIUIwRnGVW9MdEET44IlUYzsOXWKNkqeaMVS4xlMZFQx06j4LUAv8Exz4DiRQgCESaE7ypUOMMIE5KKzg/np686oAH5ODVW+SBcNove52E20XYu8W4682a5jRvg/Hi9mRLgWuFtxuNaHWwwczsfiGCJjGxLHe5Kcjkp+i3SYNaodpKI3hD9ZGM1+mm5jL7a8JzT92jbJ1Nxm2esjZjVZB5IzXsPY39i8L7BGQ+yDVnD+lDkRd0iMc9fhJh4qSNP7BkIr57KkdzrabXIL4ExcAS492SOWYDzPYPR2C3oIkXCpp6yE+IibODb0bOwyUJ0CLq/UdcXvuZJwdhQulrM0bX9bYwX0JwmnJtnNnGR0RVkDBvvIRt2f2gZ+AQ==);whiteSpace=wrap;html=1;verticalAlign=middle;spacingTop=0;spacingLeft=5;rotation=90;fontFamily=Times New Roman;fontSize=10;autosize=0;" parent="1" vertex="1">
          <mxGeometry x="276.06" y="384.63" width="8.75" height="40" as="geometry" />
        </mxCell>
        <mxCell id="OKn4Y-EZjeskhZOx6g82-37" value="" style="endArrow=classic;html=1;rounded=0;fontFamily=Times New Roman;fontSize=10;exitX=1;exitY=0.5;exitDx=0;exitDy=0;jumpSize=1;strokeWidth=1;endSize=1;startSize=1;" parent="1" source="OKn4Y-EZjeskhZOx6g82-36" edge="1">
          <mxGeometry width="50" height="50" relative="1" as="geometry">
            <mxPoint x="230.43" y="479" as="sourcePoint" />
            <mxPoint x="280.43" y="419" as="targetPoint" />
          </mxGeometry>
        </mxCell>
        <mxCell id="OKn4Y-EZjeskhZOx6g82-38" value="" style="endArrow=classic;html=1;rounded=0;fontFamily=Times New Roman;fontSize=10;jumpSize=1;strokeWidth=1;endSize=1;startSize=1;entryX=0;entryY=0.25;entryDx=0;entryDy=0;exitX=0.75;exitY=1;exitDx=0;exitDy=0;" parent="1" source="OKn4Y-EZjeskhZOx6g82-35" target="OKn4Y-EZjeskhZOx6g82-36" edge="1">
          <mxGeometry width="50" height="50" relative="1" as="geometry">
            <mxPoint x="290.43" y="419" as="sourcePoint" />
            <mxPoint x="290.43" y="399" as="targetPoint" />
          </mxGeometry>
        </mxCell>
        <mxCell id="OKn4Y-EZjeskhZOx6g82-39" value="" style="endArrow=classic;html=1;rounded=0;fontFamily=Times New Roman;fontSize=10;startSize=1;endSize=1;strokeWidth=1;jumpSize=1;entryX=0;entryY=0.75;entryDx=0;entryDy=0;" parent="1" target="OKn4Y-EZjeskhZOx6g82-36" edge="1">
          <mxGeometry width="50" height="50" relative="1" as="geometry">
            <mxPoint x="140.43" y="389" as="sourcePoint" />
            <mxPoint x="250.43" y="399" as="targetPoint" />
            <Array as="points">
              <mxPoint x="270.43" y="389" />
            </Array>
          </mxGeometry>
        </mxCell>
        <mxCell id="OKn4Y-EZjeskhZOx6g82-40" value="" style="endArrow=classic;html=1;rounded=0;fontFamily=Times New Roman;fontSize=10;startSize=1;endSize=1;strokeWidth=1;jumpSize=1;entryX=0.485;entryY=0.883;entryDx=0;entryDy=0;entryPerimeter=0;" parent="1" edge="1">
          <mxGeometry width="50" height="50" relative="1" as="geometry">
            <mxPoint x="200.43" y="405" as="sourcePoint" />
            <mxPoint x="265.1149999999999" y="405.4987500000002" as="targetPoint" />
          </mxGeometry>
        </mxCell>
        <mxCell id="OKn4Y-EZjeskhZOx6g82-41" value="rs4" style="whiteSpace=wrap;html=1;aspect=fixed;fontFamily=Times New Roman;fontSize=10;" parent="1" vertex="1">
          <mxGeometry x="260.43" y="420" width="40" height="40" as="geometry" />
        </mxCell>
        <mxCell id="OKn4Y-EZjeskhZOx6g82-42" value="" style="shape=stencil(vZXRboMgFIafxtsGZU13u7jtchfLXoAqraQIBpjWPf2OgF3VahujS4zK+T0fx184BjjWGSloEKEswK9BFIUIwRnGVW9MdEET44IlUYzsOXWKNkqeaMVS4xlMZFQx06j4LUAv8Exz4DiRQgCESaE7ypUOMMIE5KKzg/np686oAH5ODVW+SBcNove52E20XYu8W4682a5jRvg/Hi9mRLgWuFtxuNaHWwwczsfiGCJjGxLHe5Kcjkp+i3SYNaodpKI3hD9ZGM1+mm5jL7a8JzT92jbJ1Nxm2esjZjVZB5IzXsPY39i8L7BGQ+yDVnD+lDkRd0iMc9fhJh4qSNP7BkIr57KkdzrabXIL4ExcAS492SOWYDzPYPR2C3oIkXCpp6yE+IibODb0bOwyUJ0CLq/UdcXvuZJwdhQulrM0bX9bYwX0JwmnJtnNnGR0RVkDBvvIRt2f2gZ+AQ==);whiteSpace=wrap;html=1;verticalAlign=middle;spacingTop=0;spacingLeft=5;rotation=90;fontFamily=Times New Roman;fontSize=10;autosize=0;" parent="1" vertex="1">
          <mxGeometry x="276.06" y="464.63" width="8.75" height="40" as="geometry" />
        </mxCell>
        <mxCell id="OKn4Y-EZjeskhZOx6g82-43" value="" style="endArrow=classic;html=1;rounded=0;fontFamily=Times New Roman;fontSize=10;exitX=1;exitY=0.5;exitDx=0;exitDy=0;jumpSize=1;strokeWidth=1;endSize=1;startSize=1;" parent="1" source="OKn4Y-EZjeskhZOx6g82-42" edge="1">
          <mxGeometry width="50" height="50" relative="1" as="geometry">
            <mxPoint x="230.43" y="559" as="sourcePoint" />
            <mxPoint x="280.43" y="499" as="targetPoint" />
          </mxGeometry>
        </mxCell>
        <mxCell id="OKn4Y-EZjeskhZOx6g82-44" value="" style="endArrow=classic;html=1;rounded=0;fontFamily=Times New Roman;fontSize=10;jumpSize=1;strokeWidth=1;endSize=1;startSize=1;entryX=0;entryY=0.25;entryDx=0;entryDy=0;exitX=0.75;exitY=1;exitDx=0;exitDy=0;" parent="1" source="OKn4Y-EZjeskhZOx6g82-41" target="OKn4Y-EZjeskhZOx6g82-42" edge="1">
          <mxGeometry width="50" height="50" relative="1" as="geometry">
            <mxPoint x="290.43" y="499" as="sourcePoint" />
            <mxPoint x="290.43" y="479" as="targetPoint" />
          </mxGeometry>
        </mxCell>
        <mxCell id="OKn4Y-EZjeskhZOx6g82-45" value="" style="endArrow=classic;html=1;rounded=0;fontFamily=Times New Roman;fontSize=10;startSize=1;endSize=1;strokeWidth=1;jumpSize=1;entryX=0;entryY=0.75;entryDx=0;entryDy=0;" parent="1" target="OKn4Y-EZjeskhZOx6g82-42" edge="1">
          <mxGeometry width="50" height="50" relative="1" as="geometry">
            <mxPoint x="140.43" y="469" as="sourcePoint" />
            <mxPoint x="250.43" y="479" as="targetPoint" />
            <Array as="points">
              <mxPoint x="270.43" y="469" />
            </Array>
          </mxGeometry>
        </mxCell>
        <mxCell id="OKn4Y-EZjeskhZOx6g82-46" value="" style="endArrow=classic;html=1;rounded=0;fontFamily=Times New Roman;fontSize=10;startSize=1;endSize=1;strokeWidth=1;jumpSize=1;entryX=0.485;entryY=0.883;entryDx=0;entryDy=0;entryPerimeter=0;" parent="1" edge="1">
          <mxGeometry width="50" height="50" relative="1" as="geometry">
            <mxPoint x="200.43" y="485" as="sourcePoint" />
            <mxPoint x="265.1149999999999" y="485.49875" as="targetPoint" />
          </mxGeometry>
        </mxCell>
        <mxCell id="OKn4Y-EZjeskhZOx6g82-47" value="rs5" style="whiteSpace=wrap;html=1;aspect=fixed;fontFamily=Times New Roman;fontSize=10;" parent="1" vertex="1">
          <mxGeometry x="260.43" y="500" width="40" height="40" as="geometry" />
        </mxCell>
        <mxCell id="OKn4Y-EZjeskhZOx6g82-48" value="" style="shape=stencil(vZXRboMgFIafxtsGZU13u7jtchfLXoAqraQIBpjWPf2OgF3VahujS4zK+T0fx184BjjWGSloEKEswK9BFIUIwRnGVW9MdEET44IlUYzsOXWKNkqeaMVS4xlMZFQx06j4LUAv8Exz4DiRQgCESaE7ypUOMMIE5KKzg/np686oAH5ODVW+SBcNove52E20XYu8W4682a5jRvg/Hi9mRLgWuFtxuNaHWwwczsfiGCJjGxLHe5Kcjkp+i3SYNaodpKI3hD9ZGM1+mm5jL7a8JzT92jbJ1Nxm2esjZjVZB5IzXsPY39i8L7BGQ+yDVnD+lDkRd0iMc9fhJh4qSNP7BkIr57KkdzrabXIL4ExcAS492SOWYDzPYPR2C3oIkXCpp6yE+IibODb0bOwyUJ0CLq/UdcXvuZJwdhQulrM0bX9bYwX0JwmnJtnNnGR0RVkDBvvIRt2f2gZ+AQ==);whiteSpace=wrap;html=1;verticalAlign=middle;spacingTop=0;spacingLeft=5;rotation=90;fontFamily=Times New Roman;fontSize=10;autosize=0;" parent="1" vertex="1">
          <mxGeometry x="276.06" y="544.63" width="8.75" height="40" as="geometry" />
        </mxCell>
        <mxCell id="OKn4Y-EZjeskhZOx6g82-49" value="" style="endArrow=classic;html=1;rounded=0;fontFamily=Times New Roman;fontSize=10;exitX=1;exitY=0.5;exitDx=0;exitDy=0;jumpSize=1;strokeWidth=1;endSize=1;startSize=1;" parent="1" source="OKn4Y-EZjeskhZOx6g82-48" edge="1">
          <mxGeometry width="50" height="50" relative="1" as="geometry">
            <mxPoint x="230.43" y="639" as="sourcePoint" />
            <mxPoint x="280.43" y="579" as="targetPoint" />
          </mxGeometry>
        </mxCell>
        <mxCell id="OKn4Y-EZjeskhZOx6g82-50" value="" style="endArrow=classic;html=1;rounded=0;fontFamily=Times New Roman;fontSize=10;jumpSize=1;strokeWidth=1;endSize=1;startSize=1;entryX=0;entryY=0.25;entryDx=0;entryDy=0;exitX=0.75;exitY=1;exitDx=0;exitDy=0;" parent="1" source="OKn4Y-EZjeskhZOx6g82-47" target="OKn4Y-EZjeskhZOx6g82-48" edge="1">
          <mxGeometry width="50" height="50" relative="1" as="geometry">
            <mxPoint x="290.43" y="579" as="sourcePoint" />
            <mxPoint x="290.43" y="559" as="targetPoint" />
          </mxGeometry>
        </mxCell>
        <mxCell id="OKn4Y-EZjeskhZOx6g82-51" value="" style="endArrow=classic;html=1;rounded=0;fontFamily=Times New Roman;fontSize=10;startSize=1;endSize=1;strokeWidth=1;jumpSize=1;entryX=0;entryY=0.75;entryDx=0;entryDy=0;" parent="1" target="OKn4Y-EZjeskhZOx6g82-48" edge="1">
          <mxGeometry width="50" height="50" relative="1" as="geometry">
            <mxPoint x="140.43" y="549" as="sourcePoint" />
            <mxPoint x="250.43" y="559" as="targetPoint" />
            <Array as="points">
              <mxPoint x="270.43" y="549" />
            </Array>
          </mxGeometry>
        </mxCell>
        <mxCell id="OKn4Y-EZjeskhZOx6g82-52" value="" style="endArrow=classic;html=1;rounded=0;fontFamily=Times New Roman;fontSize=10;startSize=1;endSize=1;strokeWidth=1;jumpSize=1;entryX=0.485;entryY=0.883;entryDx=0;entryDy=0;entryPerimeter=0;" parent="1" edge="1">
          <mxGeometry width="50" height="50" relative="1" as="geometry">
            <mxPoint x="200.43" y="565" as="sourcePoint" />
            <mxPoint x="265.1149999999999" y="565.49875" as="targetPoint" />
          </mxGeometry>
        </mxCell>
        <mxCell id="OKn4Y-EZjeskhZOx6g82-53" value="rs6" style="whiteSpace=wrap;html=1;aspect=fixed;fontFamily=Times New Roman;fontSize=10;" parent="1" vertex="1">
          <mxGeometry x="260.43" y="580" width="40" height="40" as="geometry" />
        </mxCell>
        <mxCell id="OKn4Y-EZjeskhZOx6g82-54" value="" style="shape=stencil(vZXRboMgFIafxtsGZU13u7jtchfLXoAqraQIBpjWPf2OgF3VahujS4zK+T0fx184BjjWGSloEKEswK9BFIUIwRnGVW9MdEET44IlUYzsOXWKNkqeaMVS4xlMZFQx06j4LUAv8Exz4DiRQgCESaE7ypUOMMIE5KKzg/np686oAH5ODVW+SBcNove52E20XYu8W4682a5jRvg/Hi9mRLgWuFtxuNaHWwwczsfiGCJjGxLHe5Kcjkp+i3SYNaodpKI3hD9ZGM1+mm5jL7a8JzT92jbJ1Nxm2esjZjVZB5IzXsPY39i8L7BGQ+yDVnD+lDkRd0iMc9fhJh4qSNP7BkIr57KkdzrabXIL4ExcAS492SOWYDzPYPR2C3oIkXCpp6yE+IibODb0bOwyUJ0CLq/UdcXvuZJwdhQulrM0bX9bYwX0JwmnJtnNnGR0RVkDBvvIRt2f2gZ+AQ==);whiteSpace=wrap;html=1;verticalAlign=middle;spacingTop=0;spacingLeft=5;rotation=90;fontFamily=Times New Roman;fontSize=10;autosize=0;" parent="1" vertex="1">
          <mxGeometry x="276.06" y="624.63" width="8.75" height="40" as="geometry" />
        </mxCell>
        <mxCell id="OKn4Y-EZjeskhZOx6g82-55" value="" style="endArrow=classic;html=1;rounded=0;fontFamily=Times New Roman;fontSize=10;exitX=1;exitY=0.5;exitDx=0;exitDy=0;jumpSize=1;strokeWidth=1;endSize=1;startSize=1;" parent="1" source="OKn4Y-EZjeskhZOx6g82-54" edge="1">
          <mxGeometry width="50" height="50" relative="1" as="geometry">
            <mxPoint x="230.43" y="719" as="sourcePoint" />
            <mxPoint x="280.43" y="659" as="targetPoint" />
          </mxGeometry>
        </mxCell>
        <mxCell id="OKn4Y-EZjeskhZOx6g82-56" value="" style="endArrow=classic;html=1;rounded=0;fontFamily=Times New Roman;fontSize=10;jumpSize=1;strokeWidth=1;endSize=1;startSize=1;entryX=0;entryY=0.25;entryDx=0;entryDy=0;exitX=0.75;exitY=1;exitDx=0;exitDy=0;" parent="1" source="OKn4Y-EZjeskhZOx6g82-53" target="OKn4Y-EZjeskhZOx6g82-54" edge="1">
          <mxGeometry width="50" height="50" relative="1" as="geometry">
            <mxPoint x="290.43" y="659" as="sourcePoint" />
            <mxPoint x="290.43" y="639" as="targetPoint" />
          </mxGeometry>
        </mxCell>
        <mxCell id="OKn4Y-EZjeskhZOx6g82-57" value="" style="endArrow=classic;html=1;rounded=0;fontFamily=Times New Roman;fontSize=10;startSize=1;endSize=1;strokeWidth=1;jumpSize=1;entryX=0;entryY=0.75;entryDx=0;entryDy=0;" parent="1" target="OKn4Y-EZjeskhZOx6g82-54" edge="1">
          <mxGeometry width="50" height="50" relative="1" as="geometry">
            <mxPoint x="140.43" y="629" as="sourcePoint" />
            <mxPoint x="250.43" y="639" as="targetPoint" />
            <Array as="points">
              <mxPoint x="270.43" y="629" />
            </Array>
          </mxGeometry>
        </mxCell>
        <mxCell id="OKn4Y-EZjeskhZOx6g82-58" value="" style="endArrow=classic;html=1;rounded=0;fontFamily=Times New Roman;fontSize=10;startSize=1;endSize=1;strokeWidth=1;jumpSize=5;entryX=0.485;entryY=0.883;entryDx=0;entryDy=0;entryPerimeter=0;jumpStyle=arc;" parent="1" edge="1">
          <mxGeometry width="50" height="50" relative="1" as="geometry">
            <mxPoint x="140" y="81" as="sourcePoint" />
            <mxPoint x="265.1149999999999" y="645.4987500000002" as="targetPoint" />
            <Array as="points">
              <mxPoint x="200" y="81" />
              <mxPoint x="200.43" y="645" />
            </Array>
          </mxGeometry>
        </mxCell>
        <mxCell id="OKn4Y-EZjeskhZOx6g82-65" value="&lt;font style=&quot;font-size: 8px&quot;&gt;ser_load&lt;/font&gt;" style="edgeLabel;html=1;align=center;verticalAlign=middle;resizable=0;points=[];fontSize=10;fontFamily=Times New Roman;labelBackgroundColor=none;" parent="OKn4Y-EZjeskhZOx6g82-58" vertex="1" connectable="0">
          <mxGeometry x="-0.9733" y="1" relative="1" as="geometry">
            <mxPoint x="-28" y="-1" as="offset" />
          </mxGeometry>
        </mxCell>
        <mxCell id="OKn4Y-EZjeskhZOx6g82-59" value="rs7" style="whiteSpace=wrap;html=1;aspect=fixed;fontFamily=Times New Roman;fontSize=10;" parent="1" vertex="1">
          <mxGeometry x="260.43" y="660" width="40" height="40" as="geometry" />
        </mxCell>
        <mxCell id="OKn4Y-EZjeskhZOx6g82-67" value="ser_bit1" style="edgeLabel;html=1;align=center;verticalAlign=middle;resizable=0;points=[];fontSize=8;fontFamily=Times New Roman;" parent="1" vertex="1" connectable="0">
          <mxGeometry x="120.43285714285712" y="150" as="geometry" />
        </mxCell>
        <mxCell id="OKn4Y-EZjeskhZOx6g82-68" value="ser_bit2" style="edgeLabel;html=1;align=center;verticalAlign=middle;resizable=0;points=[];fontSize=8;fontFamily=Times New Roman;" parent="1" vertex="1" connectable="0">
          <mxGeometry x="120.57285714285712" y="230" as="geometry" />
        </mxCell>
        <mxCell id="OKn4Y-EZjeskhZOx6g82-69" value="ser_bit3" style="edgeLabel;html=1;align=center;verticalAlign=middle;resizable=0;points=[];fontSize=8;fontFamily=Times New Roman;" parent="1" vertex="1" connectable="0">
          <mxGeometry x="120.43285714285712" y="310" as="geometry" />
        </mxCell>
        <mxCell id="OKn4Y-EZjeskhZOx6g82-70" value="ser_bit4" style="edgeLabel;html=1;align=center;verticalAlign=middle;resizable=0;points=[];fontSize=8;fontFamily=Times New Roman;" parent="1" vertex="1" connectable="0">
          <mxGeometry x="120.57000000000001" y="390" as="geometry" />
        </mxCell>
        <mxCell id="OKn4Y-EZjeskhZOx6g82-71" value="ser_bit5" style="edgeLabel;html=1;align=center;verticalAlign=middle;resizable=0;points=[];fontSize=8;fontFamily=Times New Roman;" parent="1" vertex="1" connectable="0">
          <mxGeometry x="120.57285714285712" y="470" as="geometry" />
        </mxCell>
        <mxCell id="OKn4Y-EZjeskhZOx6g82-72" value="ser_bit6" style="edgeLabel;html=1;align=center;verticalAlign=middle;resizable=0;points=[];fontSize=8;fontFamily=Times New Roman;" parent="1" vertex="1" connectable="0">
          <mxGeometry x="120.71285714285712" y="550" as="geometry" />
        </mxCell>
        <mxCell id="OKn4Y-EZjeskhZOx6g82-73" value="ser_bit7" style="edgeLabel;html=1;align=center;verticalAlign=middle;resizable=0;points=[];fontSize=8;fontFamily=Times New Roman;" parent="1" vertex="1" connectable="0">
          <mxGeometry x="120.57285714285712" y="630" as="geometry" />
        </mxCell>
        <mxCell id="OKn4Y-EZjeskhZOx6g82-77" value="" style="endArrow=classic;html=1;rounded=0;fontFamily=Times New Roman;fontSize=8;startSize=1;endSize=1;strokeWidth=1;jumpStyle=arc;jumpSize=5;exitX=1;exitY=0.5;exitDx=0;exitDy=0;" parent="1" source="OKn4Y-EZjeskhZOx6g82-59" edge="1">
          <mxGeometry width="50" height="50" relative="1" as="geometry">
            <mxPoint x="290" y="519" as="sourcePoint" />
            <mxPoint x="380" y="680" as="targetPoint" />
          </mxGeometry>
        </mxCell>
        <mxCell id="OKn4Y-EZjeskhZOx6g82-78" value="ser_out" style="edgeLabel;html=1;align=center;verticalAlign=middle;resizable=0;points=[];fontSize=8;fontFamily=Times New Roman;" parent="OKn4Y-EZjeskhZOx6g82-77" vertex="1" connectable="0">
          <mxGeometry x="0.2271" y="-1" relative="1" as="geometry">
            <mxPoint x="6" y="-8" as="offset" />
          </mxGeometry>
        </mxCell>
        <mxCell id="OKn4Y-EZjeskhZOx6g82-80" value="&lt;font style=&quot;font-size: 12px&quot;&gt;Serializer&lt;/font&gt;" style="text;html=1;align=center;verticalAlign=middle;resizable=0;points=[];autosize=1;strokeColor=none;fillColor=none;fontSize=8;fontFamily=Times New Roman;" parent="1" vertex="1">
          <mxGeometry x="180" y="40" width="60" height="20" as="geometry" />
        </mxCell>
        <mxCell id="xlPUVcPiUmlX-xtXp4R3-2" value="rd0" style="whiteSpace=wrap;html=1;aspect=fixed;fontFamily=Times New Roman;fontSize=10;" vertex="1" parent="1">
          <mxGeometry x="500" y="100" width="40" height="40" as="geometry" />
        </mxCell>
        <mxCell id="xlPUVcPiUmlX-xtXp4R3-3" value="rd1" style="whiteSpace=wrap;html=1;aspect=fixed;fontFamily=Times New Roman;fontSize=10;" vertex="1" parent="1">
          <mxGeometry x="500" y="180" width="40" height="40" as="geometry" />
        </mxCell>
        <mxCell id="xlPUVcPiUmlX-xtXp4R3-4" value="rd2" style="whiteSpace=wrap;html=1;aspect=fixed;fontFamily=Times New Roman;fontSize=10;" vertex="1" parent="1">
          <mxGeometry x="500" y="260" width="40" height="40" as="geometry" />
        </mxCell>
        <mxCell id="xlPUVcPiUmlX-xtXp4R3-5" value="rd3" style="whiteSpace=wrap;html=1;aspect=fixed;fontFamily=Times New Roman;fontSize=10;" vertex="1" parent="1">
          <mxGeometry x="500" y="340" width="40" height="40" as="geometry" />
        </mxCell>
        <mxCell id="xlPUVcPiUmlX-xtXp4R3-11" value="" style="endArrow=classic;html=1;rounded=0;fontFamily=Times New Roman;fontSize=10;jumpSize=1;strokeWidth=1;endSize=1;startSize=1;entryX=0;entryY=0.5;entryDx=0;entryDy=0;" edge="1" parent="1" target="xlPUVcPiUmlX-xtXp4R3-2">
          <mxGeometry width="50" height="50" relative="1" as="geometry">
            <mxPoint x="440" y="120" as="sourcePoint" />
            <mxPoint x="300.43500000000006" y="170.255" as="targetPoint" />
          </mxGeometry>
        </mxCell>
        <mxCell id="xlPUVcPiUmlX-xtXp4R3-31" value="&lt;font face=&quot;Times New Roman&quot; style=&quot;font-size: 8px&quot;&gt;dser_in0&lt;/font&gt;" style="edgeLabel;html=1;align=center;verticalAlign=middle;resizable=0;points=[];" vertex="1" connectable="0" parent="xlPUVcPiUmlX-xtXp4R3-11">
          <mxGeometry x="-0.7356" y="2" relative="1" as="geometry">
            <mxPoint x="-26" y="1" as="offset" />
          </mxGeometry>
        </mxCell>
        <mxCell id="xlPUVcPiUmlX-xtXp4R3-12" value="" style="endArrow=classic;html=1;rounded=0;fontFamily=Times New Roman;fontSize=10;jumpSize=1;strokeWidth=1;endSize=1;startSize=1;entryX=0;entryY=0.5;entryDx=0;entryDy=0;" edge="1" parent="1" target="xlPUVcPiUmlX-xtXp4R3-3">
          <mxGeometry width="50" height="50" relative="1" as="geometry">
            <mxPoint x="440" y="199.76" as="sourcePoint" />
            <mxPoint x="490" y="200" as="targetPoint" />
          </mxGeometry>
        </mxCell>
        <mxCell id="xlPUVcPiUmlX-xtXp4R3-32" value="dser_in1" style="edgeLabel;html=1;align=center;verticalAlign=middle;resizable=0;points=[];fontSize=8;fontFamily=Times New Roman;" vertex="1" connectable="0" parent="xlPUVcPiUmlX-xtXp4R3-12">
          <mxGeometry x="-0.8847" relative="1" as="geometry">
            <mxPoint x="-22" as="offset" />
          </mxGeometry>
        </mxCell>
        <mxCell id="xlPUVcPiUmlX-xtXp4R3-13" value="" style="endArrow=classic;html=1;rounded=0;endSize=1;startSize=1;jumpSize=6;jumpStyle=arc;exitX=1;exitY=0.5;exitDx=0;exitDy=0;entryX=0;entryY=0.5;entryDx=0;entryDy=0;" edge="1" parent="1" source="xlPUVcPiUmlX-xtXp4R3-2" target="xlPUVcPiUmlX-xtXp4R3-4">
          <mxGeometry width="50" height="50" relative="1" as="geometry">
            <mxPoint x="560" y="420" as="sourcePoint" />
            <mxPoint x="550" y="280" as="targetPoint" />
            <Array as="points">
              <mxPoint x="580" y="120" />
              <mxPoint x="580" y="240" />
              <mxPoint x="480" y="240" />
              <mxPoint x="480" y="280" />
            </Array>
          </mxGeometry>
        </mxCell>
        <mxCell id="xlPUVcPiUmlX-xtXp4R3-14" value="" style="endArrow=classic;html=1;rounded=0;fontFamily=Times New Roman;fontSize=10;jumpSize=1;strokeWidth=1;endSize=1;startSize=1;" edge="1" parent="1">
          <mxGeometry width="50" height="50" relative="1" as="geometry">
            <mxPoint x="580" y="120" as="sourcePoint" />
            <mxPoint x="640" y="120" as="targetPoint" />
          </mxGeometry>
        </mxCell>
        <mxCell id="xlPUVcPiUmlX-xtXp4R3-35" value="dser_bit0" style="edgeLabel;html=1;align=center;verticalAlign=middle;resizable=0;points=[];fontSize=8;fontFamily=Times New Roman;" vertex="1" connectable="0" parent="xlPUVcPiUmlX-xtXp4R3-14">
          <mxGeometry x="0.3793" y="1" relative="1" as="geometry">
            <mxPoint x="-4" y="-6" as="offset" />
          </mxGeometry>
        </mxCell>
        <mxCell id="xlPUVcPiUmlX-xtXp4R3-15" value="" style="endArrow=classic;html=1;rounded=0;endSize=1;startSize=1;jumpSize=6;jumpStyle=arc;exitX=1;exitY=0.5;exitDx=0;exitDy=0;entryX=0;entryY=0.5;entryDx=0;entryDy=0;" edge="1" parent="1" source="xlPUVcPiUmlX-xtXp4R3-3" target="xlPUVcPiUmlX-xtXp4R3-5">
          <mxGeometry width="50" height="50" relative="1" as="geometry">
            <mxPoint x="550" y="200" as="sourcePoint" />
            <mxPoint x="550" y="360" as="targetPoint" />
            <Array as="points">
              <mxPoint x="560" y="200" />
              <mxPoint x="560" y="320" />
              <mxPoint x="480" y="320" />
              <mxPoint x="480" y="360" />
            </Array>
          </mxGeometry>
        </mxCell>
        <mxCell id="xlPUVcPiUmlX-xtXp4R3-16" value="" style="endArrow=classic;html=1;rounded=0;fontFamily=Times New Roman;fontSize=10;jumpSize=6;strokeWidth=1;endSize=1;startSize=1;jumpStyle=arc;" edge="1" parent="1">
          <mxGeometry width="50" height="50" relative="1" as="geometry">
            <mxPoint x="560" y="200" as="sourcePoint" />
            <mxPoint x="640" y="200" as="targetPoint" />
          </mxGeometry>
        </mxCell>
        <mxCell id="xlPUVcPiUmlX-xtXp4R3-36" value="dser_bit1" style="edgeLabel;html=1;align=center;verticalAlign=middle;resizable=0;points=[];fontSize=8;fontFamily=Times New Roman;" vertex="1" connectable="0" parent="xlPUVcPiUmlX-xtXp4R3-16">
          <mxGeometry x="0.4179" y="-1" relative="1" as="geometry">
            <mxPoint y="-8" as="offset" />
          </mxGeometry>
        </mxCell>
        <mxCell id="xlPUVcPiUmlX-xtXp4R3-17" value="rd4" style="whiteSpace=wrap;html=1;aspect=fixed;fontFamily=Times New Roman;fontSize=10;" vertex="1" parent="1">
          <mxGeometry x="500" y="420" width="40" height="40" as="geometry" />
        </mxCell>
        <mxCell id="xlPUVcPiUmlX-xtXp4R3-18" value="rd5" style="whiteSpace=wrap;html=1;aspect=fixed;fontFamily=Times New Roman;fontSize=10;" vertex="1" parent="1">
          <mxGeometry x="500" y="500" width="40" height="40" as="geometry" />
        </mxCell>
        <mxCell id="xlPUVcPiUmlX-xtXp4R3-19" value="rd6" style="whiteSpace=wrap;html=1;aspect=fixed;fontFamily=Times New Roman;fontSize=10;" vertex="1" parent="1">
          <mxGeometry x="500" y="580" width="40" height="40" as="geometry" />
        </mxCell>
        <mxCell id="xlPUVcPiUmlX-xtXp4R3-20" value="rd7" style="whiteSpace=wrap;html=1;aspect=fixed;fontFamily=Times New Roman;fontSize=10;" vertex="1" parent="1">
          <mxGeometry x="500" y="660" width="40" height="40" as="geometry" />
        </mxCell>
        <mxCell id="xlPUVcPiUmlX-xtXp4R3-21" value="" style="endArrow=classic;html=1;rounded=0;endSize=1;startSize=1;jumpSize=6;jumpStyle=arc;exitX=1;exitY=0.5;exitDx=0;exitDy=0;entryX=0;entryY=0.5;entryDx=0;entryDy=0;" edge="1" parent="1" source="xlPUVcPiUmlX-xtXp4R3-17" target="xlPUVcPiUmlX-xtXp4R3-19">
          <mxGeometry width="50" height="50" relative="1" as="geometry">
            <mxPoint x="560" y="740" as="sourcePoint" />
            <mxPoint x="550" y="600" as="targetPoint" />
            <Array as="points">
              <mxPoint x="580" y="440" />
              <mxPoint x="580" y="560" />
              <mxPoint x="480" y="560" />
              <mxPoint x="480" y="600" />
            </Array>
          </mxGeometry>
        </mxCell>
        <mxCell id="xlPUVcPiUmlX-xtXp4R3-22" value="" style="endArrow=classic;html=1;rounded=0;fontFamily=Times New Roman;fontSize=10;jumpSize=1;strokeWidth=1;endSize=1;startSize=1;" edge="1" parent="1">
          <mxGeometry width="50" height="50" relative="1" as="geometry">
            <mxPoint x="580" y="440" as="sourcePoint" />
            <mxPoint x="640" y="440" as="targetPoint" />
          </mxGeometry>
        </mxCell>
        <mxCell id="xlPUVcPiUmlX-xtXp4R3-39" value="dser_bit4" style="edgeLabel;html=1;align=center;verticalAlign=middle;resizable=0;points=[];fontSize=8;fontFamily=Times New Roman;" vertex="1" connectable="0" parent="xlPUVcPiUmlX-xtXp4R3-22">
          <mxGeometry x="0.2556" relative="1" as="geometry">
            <mxPoint y="-7" as="offset" />
          </mxGeometry>
        </mxCell>
        <mxCell id="xlPUVcPiUmlX-xtXp4R3-23" value="" style="endArrow=classic;html=1;rounded=0;endSize=1;startSize=1;jumpSize=6;jumpStyle=arc;exitX=1;exitY=0.5;exitDx=0;exitDy=0;entryX=0;entryY=0.5;entryDx=0;entryDy=0;" edge="1" parent="1" source="xlPUVcPiUmlX-xtXp4R3-18" target="xlPUVcPiUmlX-xtXp4R3-20">
          <mxGeometry width="50" height="50" relative="1" as="geometry">
            <mxPoint x="550" y="520" as="sourcePoint" />
            <mxPoint x="550" y="680" as="targetPoint" />
            <Array as="points">
              <mxPoint x="560" y="520" />
              <mxPoint x="560" y="640" />
              <mxPoint x="480" y="640" />
              <mxPoint x="480" y="680" />
            </Array>
          </mxGeometry>
        </mxCell>
        <mxCell id="xlPUVcPiUmlX-xtXp4R3-24" value="" style="endArrow=classic;html=1;rounded=0;fontFamily=Times New Roman;fontSize=10;jumpSize=6;strokeWidth=1;endSize=1;startSize=1;jumpStyle=arc;" edge="1" parent="1">
          <mxGeometry width="50" height="50" relative="1" as="geometry">
            <mxPoint x="560" y="520" as="sourcePoint" />
            <mxPoint x="640" y="520" as="targetPoint" />
          </mxGeometry>
        </mxCell>
        <mxCell id="xlPUVcPiUmlX-xtXp4R3-40" value="dser_bit5" style="edgeLabel;html=1;align=center;verticalAlign=middle;resizable=0;points=[];fontSize=8;fontFamily=Times New Roman;" vertex="1" connectable="0" parent="xlPUVcPiUmlX-xtXp4R3-24">
          <mxGeometry x="0.4179" y="1" relative="1" as="geometry">
            <mxPoint y="-6" as="offset" />
          </mxGeometry>
        </mxCell>
        <mxCell id="xlPUVcPiUmlX-xtXp4R3-25" value="" style="endArrow=classic;html=1;rounded=0;endSize=1;startSize=1;jumpSize=6;jumpStyle=arc;exitX=1;exitY=0.5;exitDx=0;exitDy=0;entryX=0;entryY=0.5;entryDx=0;entryDy=0;" edge="1" parent="1">
          <mxGeometry width="50" height="50" relative="1" as="geometry">
            <mxPoint x="540" y="280" as="sourcePoint" />
            <mxPoint x="500" y="440" as="targetPoint" />
            <Array as="points">
              <mxPoint x="580" y="280" />
              <mxPoint x="580" y="400" />
              <mxPoint x="480" y="400" />
              <mxPoint x="480" y="440" />
            </Array>
          </mxGeometry>
        </mxCell>
        <mxCell id="xlPUVcPiUmlX-xtXp4R3-26" value="" style="endArrow=classic;html=1;rounded=0;fontFamily=Times New Roman;fontSize=10;jumpSize=1;strokeWidth=1;endSize=1;startSize=1;" edge="1" parent="1">
          <mxGeometry width="50" height="50" relative="1" as="geometry">
            <mxPoint x="580" y="280" as="sourcePoint" />
            <mxPoint x="640" y="280" as="targetPoint" />
          </mxGeometry>
        </mxCell>
        <mxCell id="xlPUVcPiUmlX-xtXp4R3-37" value="dser_bit2" style="edgeLabel;html=1;align=center;verticalAlign=middle;resizable=0;points=[];fontSize=8;fontFamily=Times New Roman;" vertex="1" connectable="0" parent="xlPUVcPiUmlX-xtXp4R3-26">
          <mxGeometry x="0.2873" relative="1" as="geometry">
            <mxPoint y="-7" as="offset" />
          </mxGeometry>
        </mxCell>
        <mxCell id="xlPUVcPiUmlX-xtXp4R3-27" value="" style="endArrow=classic;html=1;rounded=0;endSize=1;startSize=1;jumpSize=6;jumpStyle=arc;exitX=1;exitY=0.5;exitDx=0;exitDy=0;entryX=0;entryY=0.5;entryDx=0;entryDy=0;" edge="1" parent="1">
          <mxGeometry width="50" height="50" relative="1" as="geometry">
            <mxPoint x="540" y="360" as="sourcePoint" />
            <mxPoint x="500" y="520" as="targetPoint" />
            <Array as="points">
              <mxPoint x="560" y="360" />
              <mxPoint x="560" y="480" />
              <mxPoint x="480" y="480" />
              <mxPoint x="480" y="520" />
            </Array>
          </mxGeometry>
        </mxCell>
        <mxCell id="xlPUVcPiUmlX-xtXp4R3-28" value="" style="endArrow=classic;html=1;rounded=0;fontFamily=Times New Roman;fontSize=10;jumpSize=6;strokeWidth=1;endSize=1;startSize=1;jumpStyle=arc;" edge="1" parent="1">
          <mxGeometry width="50" height="50" relative="1" as="geometry">
            <mxPoint x="560" y="360" as="sourcePoint" />
            <mxPoint x="640" y="360" as="targetPoint" />
          </mxGeometry>
        </mxCell>
        <mxCell id="xlPUVcPiUmlX-xtXp4R3-38" value="dser_bit3" style="edgeLabel;html=1;align=center;verticalAlign=middle;resizable=0;points=[];fontSize=8;fontFamily=Times New Roman;" vertex="1" connectable="0" parent="xlPUVcPiUmlX-xtXp4R3-28">
          <mxGeometry x="0.4774" y="1" relative="1" as="geometry">
            <mxPoint y="-6" as="offset" />
          </mxGeometry>
        </mxCell>
        <mxCell id="xlPUVcPiUmlX-xtXp4R3-29" value="" style="endArrow=classic;html=1;rounded=0;fontFamily=Times New Roman;fontSize=10;jumpSize=1;strokeWidth=1;endSize=1;startSize=1;exitX=1;exitY=0.5;exitDx=0;exitDy=0;" edge="1" parent="1" source="xlPUVcPiUmlX-xtXp4R3-19">
          <mxGeometry width="50" height="50" relative="1" as="geometry">
            <mxPoint x="580" y="600" as="sourcePoint" />
            <mxPoint x="640" y="600" as="targetPoint" />
          </mxGeometry>
        </mxCell>
        <mxCell id="xlPUVcPiUmlX-xtXp4R3-41" value="dser_bit6" style="edgeLabel;html=1;align=center;verticalAlign=middle;resizable=0;points=[];fontSize=8;fontFamily=Times New Roman;" vertex="1" connectable="0" parent="xlPUVcPiUmlX-xtXp4R3-29">
          <mxGeometry x="0.601" y="1" relative="1" as="geometry">
            <mxPoint y="-6" as="offset" />
          </mxGeometry>
        </mxCell>
        <mxCell id="xlPUVcPiUmlX-xtXp4R3-30" value="" style="endArrow=classic;html=1;rounded=0;fontFamily=Times New Roman;fontSize=10;jumpSize=6;strokeWidth=1;endSize=1;startSize=1;jumpStyle=arc;exitX=1;exitY=0.5;exitDx=0;exitDy=0;" edge="1" parent="1" source="xlPUVcPiUmlX-xtXp4R3-20">
          <mxGeometry width="50" height="50" relative="1" as="geometry">
            <mxPoint x="560" y="680" as="sourcePoint" />
            <mxPoint x="640" y="680" as="targetPoint" />
          </mxGeometry>
        </mxCell>
        <mxCell id="xlPUVcPiUmlX-xtXp4R3-42" value="dser_bit7" style="edgeLabel;html=1;align=center;verticalAlign=middle;resizable=0;points=[];fontSize=8;fontFamily=Times New Roman;" vertex="1" connectable="0" parent="xlPUVcPiUmlX-xtXp4R3-30">
          <mxGeometry x="0.601" y="1" relative="1" as="geometry">
            <mxPoint y="-6" as="offset" />
          </mxGeometry>
        </mxCell>
        <mxCell id="xlPUVcPiUmlX-xtXp4R3-33" value="" style="rounded=0;whiteSpace=wrap;html=1;fontFamily=Times New Roman;fontSize=8;fillColor=none;" vertex="1" parent="1">
          <mxGeometry x="460" y="40" width="140" height="680" as="geometry" />
        </mxCell>
        <mxCell id="xlPUVcPiUmlX-xtXp4R3-34" value="&lt;font style=&quot;font-size: 12px&quot;&gt;Deserializer&lt;/font&gt;" style="text;html=1;align=center;verticalAlign=middle;resizable=0;points=[];autosize=1;strokeColor=none;fillColor=none;fontSize=8;fontFamily=Times New Roman;" vertex="1" parent="1">
          <mxGeometry x="460" y="40" width="70" height="20" as="geometry" />
        </mxCell>
        <mxCell id="xlPUVcPiUmlX-xtXp4R3-43" value="" style="shape=stencil(vZXRboMgFIafxtsGZU13u7jtchfLXoAqraQIBpjWPf2OgF3VahujS4zK+Tkf+AuHAMc6IwUNIpQF+DWIohAhuEO76rWJLmhiXLAkipE9p07RRskTrVhqPIOJjCpmGhW/BegF+jQXjhMpBECYFLqjXOkAI0xALjo7mB++7rQK4OfUUOUn6aJB9D4Xu4m2a5F3y5E323XMCP/H48WMCNcCd2ccrvXjFgOH87E4hsjYhsTxniSno5LfIh1mjWoHqegN4U8WRrOfptrYh53eE5r+bJtkam6z7PMRs5qsA8kZr6HtX2zeF1ijIfZBK7h/ypyIOyTGuatwE50K0tS+gdDKuSzpnYp2m9wCOBNXgEtN9oglGM8zGL3dgh5CJFzqKSshPuImjg09G7sMukv78kldV/yeKwlnR+FiOUvT9tgam0B/EDQ1yG7mIKMryhow2Ec26k5qG/gF);whiteSpace=wrap;html=1;verticalAlign=middle;spacingTop=0;spacingLeft=5;rotation=0;fontFamily=Times New Roman;fontSize=10;fillColor=none;" vertex="1" parent="1">
          <mxGeometry x="200" y="960" width="10" height="40" as="geometry" />
        </mxCell>
        <mxCell id="xlPUVcPiUmlX-xtXp4R3-44" value="" style="shape=flexArrow;endArrow=classic;html=1;rounded=0;fontFamily=Times New Roman;fontSize=8;startSize=1;endSize=3.1285714285714286;jumpStyle=arc;jumpSize=6;targetPerimeterSpacing=0;width=5.714285714285714;endWidth=7.755102040816325;entryX=0;entryY=0.25;entryDx=0;entryDy=0;" edge="1" parent="1" target="xlPUVcPiUmlX-xtXp4R3-43">
          <mxGeometry width="50" height="50" relative="1" as="geometry">
            <mxPoint x="170" y="970" as="sourcePoint" />
            <mxPoint x="360" y="1000" as="targetPoint" />
          </mxGeometry>
        </mxCell>
        <mxCell id="xlPUVcPiUmlX-xtXp4R3-47" value="&lt;b&gt;0&lt;/b&gt;" style="edgeLabel;html=1;align=center;verticalAlign=middle;resizable=0;points=[];fontSize=8;fontFamily=Times New Roman;" vertex="1" connectable="0" parent="xlPUVcPiUmlX-xtXp4R3-44">
          <mxGeometry x="-0.6952" relative="1" as="geometry">
            <mxPoint x="-9" as="offset" />
          </mxGeometry>
        </mxCell>
        <mxCell id="xlPUVcPiUmlX-xtXp4R3-45" value="" style="shape=flexArrow;endArrow=classic;html=1;rounded=0;fontFamily=Times New Roman;fontSize=8;startSize=1;endSize=3.1285714285714286;jumpStyle=arc;jumpSize=6;targetPerimeterSpacing=0;width=5.714285714285714;endWidth=7.755102040816325;exitX=1;exitY=0.5;exitDx=0;exitDy=0;entryX=0;entryY=0.5;entryDx=0;entryDy=0;" edge="1" parent="1" source="xlPUVcPiUmlX-xtXp4R3-43" target="xlPUVcPiUmlX-xtXp4R3-46">
          <mxGeometry width="50" height="50" relative="1" as="geometry">
            <mxPoint x="235.43" y="980" as="sourcePoint" />
            <mxPoint x="240" y="980" as="targetPoint" />
          </mxGeometry>
        </mxCell>
        <mxCell id="xlPUVcPiUmlX-xtXp4R3-46" value="rmr" style="whiteSpace=wrap;html=1;aspect=fixed;fontFamily=Times New Roman;fontSize=10;fillColor=none;" vertex="1" parent="1">
          <mxGeometry x="240" y="960" width="40" height="40" as="geometry" />
        </mxCell>
        <mxCell id="xlPUVcPiUmlX-xtXp4R3-48" value="&lt;b&gt;+&lt;/b&gt;" style="shape=stencil(vZXbjoIwEIafpremh0W9Nez6HhVHaawtaevp7R0oGhFxNwibEJL+P/N1GIYpEanPZQGE05yIb8I5oxTvuD49raUvIAtRPEqn5EpDdHxwdgcntQ41Q5kcnAqlK34IXeAz5SXSzBqDEGWNbzgPPsKkMhhLzxFWb39prArk7yGAq5OMKuHLvtgJT8Yiz4YjT5JxisH+p8aDFYKNBW5mzMb6cIOBWX+sSFHp+iFFupLZbuvswazbUZ3exjp4YdxtpXUcFm9es5DlGGkZN3tvj/DLcHhNvgG0Mg+A+3irEUMw5j0YT41HP0ZMexB4s0uTj5P4+hMh09a/6wjUO5oCT6+udqrCWv1YqfHEq4Qr);whiteSpace=wrap;html=1;verticalAlign=middle;spacingTop=0;spacingLeft=5;fontFamily=Times New Roman;fontSize=10;fillColor=none;" vertex="1" parent="1">
          <mxGeometry x="320" y="960" width="30" height="80" as="geometry" />
        </mxCell>
        <mxCell id="xlPUVcPiUmlX-xtXp4R3-49" value="" style="shape=flexArrow;endArrow=classic;html=1;rounded=0;fontFamily=Times New Roman;fontSize=8;startSize=1;endSize=3.1285714285714286;jumpStyle=arc;jumpSize=6;targetPerimeterSpacing=0;width=5.714285714285714;endWidth=7.755102040816325;entryX=0;entryY=0.25;entryDx=0;entryDy=0;exitX=1;exitY=0.5;exitDx=0;exitDy=0;" edge="1" parent="1" source="xlPUVcPiUmlX-xtXp4R3-46" target="xlPUVcPiUmlX-xtXp4R3-48">
          <mxGeometry width="50" height="50" relative="1" as="geometry">
            <mxPoint x="180" y="980" as="sourcePoint" />
            <mxPoint x="210" y="980" as="targetPoint" />
          </mxGeometry>
        </mxCell>
        <mxCell id="xlPUVcPiUmlX-xtXp4R3-51" value="" style="shape=flexArrow;endArrow=classic;html=1;rounded=0;fontFamily=Times New Roman;fontSize=8;startSize=1;endSize=3.1285714285714286;jumpStyle=arc;jumpSize=6;targetPerimeterSpacing=0;width=5.714285714285714;endWidth=7.755102040816325;entryX=0;entryY=0.75;entryDx=0;entryDy=0;" edge="1" parent="1" target="xlPUVcPiUmlX-xtXp4R3-48">
          <mxGeometry width="50" height="50" relative="1" as="geometry">
            <mxPoint x="290" y="1020" as="sourcePoint" />
            <mxPoint x="314.81" y="1030" as="targetPoint" />
          </mxGeometry>
        </mxCell>
        <mxCell id="xlPUVcPiUmlX-xtXp4R3-52" value="&lt;b&gt;1&lt;/b&gt;" style="edgeLabel;html=1;align=center;verticalAlign=middle;resizable=0;points=[];fontSize=8;fontFamily=Times New Roman;" vertex="1" connectable="0" parent="xlPUVcPiUmlX-xtXp4R3-51">
          <mxGeometry x="-0.6952" relative="1" as="geometry">
            <mxPoint x="-10" as="offset" />
          </mxGeometry>
        </mxCell>
        <mxCell id="xlPUVcPiUmlX-xtXp4R3-53" value="" style="shape=flexArrow;endArrow=classic;html=1;rounded=0;fontFamily=Times New Roman;fontSize=8;startSize=1;endSize=3.1285714285714286;jumpStyle=arc;jumpSize=6;targetPerimeterSpacing=0;width=5.714285714285714;endWidth=7.755102040816325;entryX=0;entryY=0.75;entryDx=0;entryDy=0;exitX=1;exitY=0.5;exitDx=0;exitDy=0;" edge="1" parent="1" source="xlPUVcPiUmlX-xtXp4R3-48" target="xlPUVcPiUmlX-xtXp4R3-43">
          <mxGeometry width="50" height="50" relative="1" as="geometry">
            <mxPoint x="370" y="1000" as="sourcePoint" />
            <mxPoint x="410" y="1000" as="targetPoint" />
            <Array as="points">
              <mxPoint x="380" y="1000" />
              <mxPoint x="380" y="1060" />
              <mxPoint x="170" y="1060" />
              <mxPoint x="170" y="990" />
            </Array>
          </mxGeometry>
        </mxCell>
        <mxCell id="xlPUVcPiUmlX-xtXp4R3-54" value="" style="endArrow=classic;html=1;rounded=0;fontFamily=Times New Roman;fontSize=8;targetPerimeterSpacing=0;jumpStyle=arc;jumpSize=6;startSize=1;endSize=1;entryX=0.46;entryY=0.085;entryDx=0;entryDy=0;entryPerimeter=0;" edge="1" parent="1" target="xlPUVcPiUmlX-xtXp4R3-43">
          <mxGeometry width="50" height="50" relative="1" as="geometry">
            <mxPoint x="204" y="930" as="sourcePoint" />
            <mxPoint x="206.39999999999998" y="964.5999999999999" as="targetPoint" />
          </mxGeometry>
        </mxCell>
        <mxCell id="xlPUVcPiUmlX-xtXp4R3-55" value="rmr_sel" style="edgeLabel;html=1;align=center;verticalAlign=middle;resizable=0;points=[];fontSize=8;fontFamily=Times New Roman;" vertex="1" connectable="0" parent="xlPUVcPiUmlX-xtXp4R3-54">
          <mxGeometry x="-0.653" relative="1" as="geometry">
            <mxPoint x="1" y="-6" as="offset" />
          </mxGeometry>
        </mxCell>
        <mxCell id="xlPUVcPiUmlX-xtXp4R3-56" value="" style="endArrow=classic;html=1;rounded=0;fontFamily=Times New Roman;fontSize=8;startSize=1;endSize=1;targetPerimeterSpacing=0;jumpStyle=arc;jumpSize=6;entryX=0.5;entryY=0;entryDx=0;entryDy=0;" edge="1" parent="1" target="xlPUVcPiUmlX-xtXp4R3-46">
          <mxGeometry width="50" height="50" relative="1" as="geometry">
            <mxPoint x="260" y="920" as="sourcePoint" />
            <mxPoint x="290" y="1000" as="targetPoint" />
          </mxGeometry>
        </mxCell>
        <mxCell id="xlPUVcPiUmlX-xtXp4R3-57" value="rmr_load" style="edgeLabel;html=1;align=center;verticalAlign=middle;resizable=0;points=[];fontSize=8;fontFamily=Times New Roman;" vertex="1" connectable="0" parent="xlPUVcPiUmlX-xtXp4R3-56">
          <mxGeometry x="-0.77" y="1" relative="1" as="geometry">
            <mxPoint y="-1" as="offset" />
          </mxGeometry>
        </mxCell>
        <mxCell id="xlPUVcPiUmlX-xtXp4R3-58" value="ri" style="whiteSpace=wrap;html=1;aspect=fixed;fontFamily=Times New Roman;fontSize=10;fillColor=none;" vertex="1" parent="1">
          <mxGeometry x="240" y="840" width="40" height="40" as="geometry" />
        </mxCell>
        <mxCell id="xlPUVcPiUmlX-xtXp4R3-59" value="&lt;b&gt;+&lt;/b&gt;" style="shape=stencil(vZXbjoIwEIafpremh0W9Nez6HhVHaawtaevp7R0oGhFxNwibEJL+P/N1GIYpEanPZQGE05yIb8I5oxTvuD49raUvIAtRPEqn5EpDdHxwdgcntQ41Q5kcnAqlK34IXeAz5SXSzBqDEGWNbzgPPsKkMhhLzxFWb39prArk7yGAq5OMKuHLvtgJT8Yiz4YjT5JxisH+p8aDFYKNBW5mzMb6cIOBWX+sSFHp+iFFupLZbuvswazbUZ3exjp4YdxtpXUcFm9es5DlGGkZN3tvj/DLcHhNvgG0Mg+A+3irEUMw5j0YT41HP0ZMexB4s0uTj5P4+hMh09a/6wjUO5oCT6+udqrCWv1YqfHEq4Qr);whiteSpace=wrap;html=1;verticalAlign=middle;spacingTop=0;spacingLeft=5;fontFamily=Times New Roman;fontSize=10;fillColor=none;" vertex="1" parent="1">
          <mxGeometry x="170" y="820" width="30" height="80" as="geometry" />
        </mxCell>
        <mxCell id="xlPUVcPiUmlX-xtXp4R3-60" value="" style="shape=flexArrow;endArrow=classic;html=1;rounded=0;fontFamily=Times New Roman;fontSize=8;startSize=1;endSize=3.1285714285714286;jumpStyle=arc;jumpSize=6;targetPerimeterSpacing=0;width=5.714285714285714;endWidth=7.755102040816325;entryX=0;entryY=0.75;entryDx=0;entryDy=0;" edge="1" parent="1" target="xlPUVcPiUmlX-xtXp4R3-59">
          <mxGeometry width="50" height="50" relative="1" as="geometry">
            <mxPoint x="140" y="880" as="sourcePoint" />
            <mxPoint x="164.81" y="890" as="targetPoint" />
          </mxGeometry>
        </mxCell>
        <mxCell id="xlPUVcPiUmlX-xtXp4R3-61" value="&lt;b&gt;1&lt;/b&gt;" style="edgeLabel;html=1;align=center;verticalAlign=middle;resizable=0;points=[];fontSize=8;fontFamily=Times New Roman;" vertex="1" connectable="0" parent="xlPUVcPiUmlX-xtXp4R3-60">
          <mxGeometry x="-0.6952" relative="1" as="geometry">
            <mxPoint x="-9" as="offset" />
          </mxGeometry>
        </mxCell>
        <mxCell id="xlPUVcPiUmlX-xtXp4R3-63" value="" style="shape=flexArrow;endArrow=classic;html=1;rounded=0;fontFamily=Times New Roman;fontSize=8;startSize=1;endSize=3.1285714285714286;jumpStyle=arc;jumpSize=6;targetPerimeterSpacing=0;width=5.714285714285714;endWidth=7.755102040816325;exitX=1;exitY=0.5;exitDx=0;exitDy=0;entryX=0;entryY=0.5;entryDx=0;entryDy=0;" edge="1" parent="1" source="xlPUVcPiUmlX-xtXp4R3-59" target="xlPUVcPiUmlX-xtXp4R3-58">
          <mxGeometry width="50" height="50" relative="1" as="geometry">
            <mxPoint x="210" y="859.71" as="sourcePoint" />
            <mxPoint x="230" y="860" as="targetPoint" />
          </mxGeometry>
        </mxCell>
        <mxCell id="xlPUVcPiUmlX-xtXp4R3-64" value="" style="shape=flexArrow;endArrow=classic;html=1;rounded=0;fontFamily=Times New Roman;fontSize=8;startSize=1;endSize=3.1285714285714286;jumpStyle=arc;jumpSize=6;targetPerimeterSpacing=0;width=5.714285714285714;endWidth=7.755102040816325;entryX=0;entryY=0.25;entryDx=0;entryDy=0;" edge="1" parent="1" target="xlPUVcPiUmlX-xtXp4R3-59">
          <mxGeometry width="50" height="50" relative="1" as="geometry">
            <mxPoint x="140" y="840" as="sourcePoint" />
            <mxPoint x="160" y="840" as="targetPoint" />
          </mxGeometry>
        </mxCell>
        <mxCell id="xlPUVcPiUmlX-xtXp4R3-65" value="&quot;0&quot; &amp;amp; i_data" style="edgeLabel;html=1;align=center;verticalAlign=middle;resizable=0;points=[];fontSize=8;fontFamily=Times New Roman;" vertex="1" connectable="0" parent="xlPUVcPiUmlX-xtXp4R3-64">
          <mxGeometry x="-0.6952" relative="1" as="geometry">
            <mxPoint x="-26" as="offset" />
          </mxGeometry>
        </mxCell>
        <mxCell id="xlPUVcPiUmlX-xtXp4R3-66" value="" style="endArrow=classic;html=1;rounded=0;fontFamily=Times New Roman;fontSize=8;startSize=1;endSize=1;targetPerimeterSpacing=0;jumpStyle=arc;jumpSize=6;entryX=0.5;entryY=0;entryDx=0;entryDy=0;" edge="1" parent="1" target="xlPUVcPiUmlX-xtXp4R3-58">
          <mxGeometry width="50" height="50" relative="1" as="geometry">
            <mxPoint x="259.71" y="800" as="sourcePoint" />
            <mxPoint x="260" y="830" as="targetPoint" />
          </mxGeometry>
        </mxCell>
        <mxCell id="xlPUVcPiUmlX-xtXp4R3-67" value="ri_load" style="edgeLabel;html=1;align=center;verticalAlign=middle;resizable=0;points=[];fontSize=8;fontFamily=Times New Roman;" vertex="1" connectable="0" parent="xlPUVcPiUmlX-xtXp4R3-66">
          <mxGeometry x="-0.77" y="1" relative="1" as="geometry">
            <mxPoint y="-1" as="offset" />
          </mxGeometry>
        </mxCell>
        <mxCell id="xlPUVcPiUmlX-xtXp4R3-68" value="" style="shape=flexArrow;endArrow=classic;html=1;rounded=0;fontFamily=Times New Roman;fontSize=8;startSize=1;endSize=3.1285714285714286;jumpStyle=arc;jumpSize=6;targetPerimeterSpacing=0;width=5.714285714285714;endWidth=7.755102040816325;entryX=-0.003;entryY=0.71;entryDx=0;entryDy=0;entryPerimeter=0;" edge="1" parent="1" target="xlPUVcPiUmlX-xtXp4R3-71">
          <mxGeometry width="50" height="50" relative="1" as="geometry">
            <mxPoint x="290" y="978" as="sourcePoint" />
            <mxPoint x="320" y="890" as="targetPoint" />
            <Array as="points">
              <mxPoint x="290" y="890" />
            </Array>
          </mxGeometry>
        </mxCell>
        <mxCell id="xlPUVcPiUmlX-xtXp4R3-69" value="" style="shape=flexArrow;endArrow=classic;html=1;rounded=0;fontFamily=Times New Roman;fontSize=8;startSize=1;endSize=3.1285714285714286;jumpStyle=arc;jumpSize=6;targetPerimeterSpacing=0;width=5.714285714285714;endWidth=7.755102040816325;exitX=1;exitY=0.5;exitDx=0;exitDy=0;entryX=0;entryY=0.75;entryDx=0;entryDy=0;" edge="1" parent="1" target="xlPUVcPiUmlX-xtXp4R3-90">
          <mxGeometry width="50" height="50" relative="1" as="geometry">
            <mxPoint x="292" y="930" as="sourcePoint" />
            <mxPoint x="520" y="930" as="targetPoint" />
          </mxGeometry>
        </mxCell>
        <mxCell id="xlPUVcPiUmlX-xtXp4R3-70" value="" style="shape=flexArrow;endArrow=classic;html=1;rounded=0;fontFamily=Times New Roman;fontSize=8;startSize=1;endSize=3.1285714285714286;jumpStyle=arc;jumpSize=6;targetPerimeterSpacing=0;width=5.714285714285714;endWidth=7.755102040816325;exitX=1;exitY=0.5;exitDx=0;exitDy=0;entryX=0.004;entryY=0.283;entryDx=0;entryDy=0;entryPerimeter=0;" edge="1" parent="1" source="xlPUVcPiUmlX-xtXp4R3-58" target="xlPUVcPiUmlX-xtXp4R3-71">
          <mxGeometry width="50" height="50" relative="1" as="geometry">
            <mxPoint x="284.81" y="859.86" as="sourcePoint" />
            <mxPoint x="320" y="860" as="targetPoint" />
          </mxGeometry>
        </mxCell>
        <mxCell id="xlPUVcPiUmlX-xtXp4R3-71" value="comparator" style="rounded=0;whiteSpace=wrap;html=1;fontFamily=Times New Roman;fontSize=8;fillColor=none;" vertex="1" parent="1">
          <mxGeometry x="320" y="840" width="50" height="70" as="geometry" />
        </mxCell>
        <mxCell id="xlPUVcPiUmlX-xtXp4R3-72" value="" style="endArrow=classic;html=1;rounded=0;fontFamily=Times New Roman;fontSize=8;startSize=1;endSize=1;targetPerimeterSpacing=0;jumpStyle=arc;jumpSize=6;exitX=1.013;exitY=0.29;exitDx=0;exitDy=0;exitPerimeter=0;" edge="1" parent="1">
          <mxGeometry width="50" height="50" relative="1" as="geometry">
            <mxPoint x="370" y="860.13" as="sourcePoint" />
            <mxPoint x="399.35" y="859.83" as="targetPoint" />
          </mxGeometry>
        </mxCell>
        <mxCell id="xlPUVcPiUmlX-xtXp4R3-73" value="o_done" style="edgeLabel;html=1;align=center;verticalAlign=middle;resizable=0;points=[];fontSize=8;fontFamily=Times New Roman;" vertex="1" connectable="0" parent="xlPUVcPiUmlX-xtXp4R3-72">
          <mxGeometry x="-0.77" y="1" relative="1" as="geometry">
            <mxPoint x="17" y="-9" as="offset" />
          </mxGeometry>
        </mxCell>
        <mxCell id="xlPUVcPiUmlX-xtXp4R3-76" value="&lt;b&gt;+&lt;/b&gt;" style="shape=stencil(vZXbjoIwEIafpremh0W9Nez6HhVHaawtaevp7R0oGhFxNwibEJL+P/N1GIYpEanPZQGE05yIb8I5oxTvuD49raUvIAtRPEqn5EpDdHxwdgcntQ41Q5kcnAqlK34IXeAz5SXSzBqDEGWNbzgPPsKkMhhLzxFWb39prArk7yGAq5OMKuHLvtgJT8Yiz4YjT5JxisH+p8aDFYKNBW5mzMb6cIOBWX+sSFHp+iFFupLZbuvswazbUZ3exjp4YdxtpXUcFm9es5DlGGkZN3tvj/DLcHhNvgG0Mg+A+3irEUMw5j0YT41HP0ZMexB4s0uTj5P4+hMh09a/6wjUO5oCT6+udqrCWv1YqfHEq4Qr);whiteSpace=wrap;html=1;verticalAlign=middle;spacingTop=0;spacingLeft=5;fontFamily=Times New Roman;fontSize=10;fillColor=none;" vertex="1" parent="1">
          <mxGeometry x="480" y="800" width="30" height="80" as="geometry" />
        </mxCell>
        <mxCell id="xlPUVcPiUmlX-xtXp4R3-77" value="" style="shape=flexArrow;endArrow=classic;html=1;rounded=0;fontFamily=Times New Roman;fontSize=8;startSize=1;endSize=3.1285714285714286;jumpStyle=arc;jumpSize=6;targetPerimeterSpacing=0;width=5.714285714285714;endWidth=7.755102040816325;entryX=0;entryY=0.25;entryDx=0;entryDy=0;" edge="1" parent="1" target="xlPUVcPiUmlX-xtXp4R3-76">
          <mxGeometry width="50" height="50" relative="1" as="geometry">
            <mxPoint x="450" y="820" as="sourcePoint" />
            <mxPoint x="470" y="820" as="targetPoint" />
          </mxGeometry>
        </mxCell>
        <mxCell id="xlPUVcPiUmlX-xtXp4R3-78" value="&lt;b&gt;1000&lt;/b&gt;" style="edgeLabel;html=1;align=center;verticalAlign=middle;resizable=0;points=[];fontSize=8;fontFamily=Times New Roman;" vertex="1" connectable="0" parent="xlPUVcPiUmlX-xtXp4R3-77">
          <mxGeometry x="-0.6952" relative="1" as="geometry">
            <mxPoint x="-15" as="offset" />
          </mxGeometry>
        </mxCell>
        <mxCell id="xlPUVcPiUmlX-xtXp4R3-79" value="" style="shape=flexArrow;endArrow=classic;html=1;rounded=0;fontFamily=Times New Roman;fontSize=8;startSize=1;endSize=3.1285714285714286;jumpStyle=arc;jumpSize=6;targetPerimeterSpacing=0;width=5.714285714285714;endWidth=7.755102040816325;" edge="1" parent="1">
          <mxGeometry width="50" height="50" relative="1" as="geometry">
            <mxPoint x="440" y="928" as="sourcePoint" />
            <mxPoint x="440" y="900" as="targetPoint" />
          </mxGeometry>
        </mxCell>
        <mxCell id="xlPUVcPiUmlX-xtXp4R3-80" value="&amp;lt;&amp;lt; 1" style="rounded=0;whiteSpace=wrap;html=1;fontFamily=Times New Roman;fontSize=8;fillColor=none;" vertex="1" parent="1">
          <mxGeometry x="410" y="880" width="60" height="20" as="geometry" />
        </mxCell>
        <mxCell id="xlPUVcPiUmlX-xtXp4R3-81" value="" style="shape=flexArrow;endArrow=classic;html=1;rounded=0;fontFamily=Times New Roman;fontSize=8;startSize=1;endSize=3.1285714285714286;jumpStyle=arc;jumpSize=6;targetPerimeterSpacing=0;width=5.714285714285714;endWidth=7.755102040816325;exitX=0.5;exitY=0;exitDx=0;exitDy=0;entryX=0;entryY=0.75;entryDx=0;entryDy=0;" edge="1" parent="1" source="xlPUVcPiUmlX-xtXp4R3-80" target="xlPUVcPiUmlX-xtXp4R3-76">
          <mxGeometry width="50" height="50" relative="1" as="geometry">
            <mxPoint x="429.8" y="859.9" as="sourcePoint" />
            <mxPoint x="469.99999999999994" y="859.7099999999999" as="targetPoint" />
            <Array as="points">
              <mxPoint x="440" y="860" />
            </Array>
          </mxGeometry>
        </mxCell>
        <mxCell id="xlPUVcPiUmlX-xtXp4R3-83" value="+" style="shape=stencil(vZXbjoIwEIafpremh0W9Nez6HhVHaawtaevp7R0oGhFxNwibEJL+P/N1GIYpEanPZQGE05yIb8I5oxTvuD49raUvIAtRPEqn5EpDdHxwdgcntQ41Q5kcnAqlK34IXeAz5SXSzBqDEGWNbzgPPsKkMhhLzxFWb39prArk7yGAq5OMKuHLvtgJT8Yiz4YjT5JxisH+p8aDFYKNBW5mzMb6cIOBWX+sSFHp+iFFupLZbuvswazbUZ3exjp4YdxtpXUcFm9es5DlGGkZN3tvj/DLcHhNvgG0Mg+A+3irEUMw5j0YT41HP0ZMexB4s0uTj5P4+hMh09a/6wjUO5oCT6+udqrCWv1YqfHEq4Qr);whiteSpace=wrap;html=1;verticalAlign=middle;spacingTop=0;spacingLeft=5;fontFamily=Times New Roman;fontSize=10;fillColor=none;" vertex="1" parent="1">
          <mxGeometry x="560" y="780" width="30" height="80" as="geometry" />
        </mxCell>
        <mxCell id="xlPUVcPiUmlX-xtXp4R3-84" value="" style="shape=flexArrow;endArrow=classic;html=1;rounded=0;fontFamily=Times New Roman;fontSize=8;startSize=1;endSize=3.1285714285714286;jumpStyle=arc;jumpSize=6;targetPerimeterSpacing=0;width=5.714285714285714;endWidth=7.755102040816325;entryX=0;entryY=0.25;entryDx=0;entryDy=0;" edge="1" parent="1" target="xlPUVcPiUmlX-xtXp4R3-83">
          <mxGeometry width="50" height="50" relative="1" as="geometry">
            <mxPoint x="530" y="800" as="sourcePoint" />
            <mxPoint x="550" y="800" as="targetPoint" />
          </mxGeometry>
        </mxCell>
        <mxCell id="xlPUVcPiUmlX-xtXp4R3-85" value="&lt;b&gt;1&lt;/b&gt;" style="edgeLabel;html=1;align=center;verticalAlign=middle;resizable=0;points=[];fontSize=8;fontFamily=Times New Roman;" vertex="1" connectable="0" parent="xlPUVcPiUmlX-xtXp4R3-84">
          <mxGeometry x="-0.6952" relative="1" as="geometry">
            <mxPoint x="-9" as="offset" />
          </mxGeometry>
        </mxCell>
        <mxCell id="xlPUVcPiUmlX-xtXp4R3-86" value="" style="shape=flexArrow;endArrow=classic;html=1;rounded=0;fontFamily=Times New Roman;fontSize=8;startSize=1;endSize=3.1285714285714286;jumpStyle=arc;jumpSize=6;targetPerimeterSpacing=0;width=5.714285714285714;endWidth=7.755102040816325;exitX=1;exitY=0.5;exitDx=0;exitDy=0;entryX=0;entryY=0.75;entryDx=0;entryDy=0;" edge="1" parent="1" source="xlPUVcPiUmlX-xtXp4R3-76" target="xlPUVcPiUmlX-xtXp4R3-83">
          <mxGeometry width="50" height="50" relative="1" as="geometry">
            <mxPoint x="550" y="904" as="sourcePoint" />
            <mxPoint x="550" y="876" as="targetPoint" />
          </mxGeometry>
        </mxCell>
        <mxCell id="xlPUVcPiUmlX-xtXp4R3-87" value="" style="shape=flexArrow;endArrow=classic;html=1;rounded=0;fontFamily=Times New Roman;fontSize=8;startSize=1;endSize=3.1285714285714286;jumpStyle=arc;jumpSize=6;targetPerimeterSpacing=0;width=5.714285714285714;endWidth=7.755102040816325;entryX=0;entryY=0.75;entryDx=0;entryDy=0;" edge="1" parent="1" target="xlPUVcPiUmlX-xtXp4R3-89">
          <mxGeometry width="50" height="50" relative="1" as="geometry">
            <mxPoint x="530" y="842" as="sourcePoint" />
            <mxPoint x="640" y="880" as="targetPoint" />
            <Array as="points">
              <mxPoint x="530" y="880" />
            </Array>
          </mxGeometry>
        </mxCell>
        <mxCell id="xlPUVcPiUmlX-xtXp4R3-88" value="" style="shape=flexArrow;endArrow=classic;html=1;rounded=0;fontFamily=Times New Roman;fontSize=8;startSize=1;endSize=3.1285714285714286;jumpStyle=arc;jumpSize=6;targetPerimeterSpacing=0;width=5.714285714285714;endWidth=7.755102040816325;exitX=1;exitY=0.5;exitDx=0;exitDy=0;entryX=0;entryY=0.25;entryDx=0;entryDy=0;" edge="1" parent="1" source="xlPUVcPiUmlX-xtXp4R3-83" target="xlPUVcPiUmlX-xtXp4R3-89">
          <mxGeometry width="50" height="50" relative="1" as="geometry">
            <mxPoint x="640" y="834" as="sourcePoint" />
            <mxPoint x="640" y="830" as="targetPoint" />
            <Array as="points">
              <mxPoint x="610" y="820" />
              <mxPoint x="610" y="860" />
            </Array>
          </mxGeometry>
        </mxCell>
        <mxCell id="xlPUVcPiUmlX-xtXp4R3-89" value="" style="shape=stencil(vZXRboMgFIafxtsGZU13u7jtchfLXoAqraQIBpjWPf2OgF3VahujS4zK+Tkf+AuHAMc6IwUNIpQF+DWIohAhuEO76rWJLmhiXLAkipE9p07RRskTrVhqPIOJjCpmGhW/BegF+jQXjhMpBECYFLqjXOkAI0xALjo7mB++7rQK4OfUUOUn6aJB9D4Xu4m2a5F3y5E323XMCP/H48WMCNcCd2ccrvXjFgOH87E4hsjYhsTxniSno5LfIh1mjWoHqegN4U8WRrOfptrYh53eE5r+bJtkam6z7PMRs5qsA8kZr6HtX2zeF1ijIfZBK7h/ypyIOyTGuatwE50K0tS+gdDKuSzpnYp2m9wCOBNXgEtN9oglGM8zGL3dgh5CJFzqKSshPuImjg09G7sMukv78kldV/yeKwlnR+FiOUvT9tgam0B/EDQ1yG7mIKMryhow2Ec26k5qG/gF);whiteSpace=wrap;html=1;verticalAlign=middle;spacingTop=0;spacingLeft=5;rotation=0;fontFamily=Times New Roman;fontSize=10;fillColor=none;" vertex="1" parent="1">
          <mxGeometry x="630" y="850" width="10" height="40" as="geometry" />
        </mxCell>
        <mxCell id="xlPUVcPiUmlX-xtXp4R3-90" value="" style="shape=stencil(vZXRboMgFIafxtsGZU13u7jtchfLXoAqraQIBpjWPf2OgF3VahujS4zK+Tkf+AuHAMc6IwUNIpQF+DWIohAhuEO76rWJLmhiXLAkipE9p07RRskTrVhqPIOJjCpmGhW/BegF+jQXjhMpBECYFLqjXOkAI0xALjo7mB++7rQK4OfUUOUn6aJB9D4Xu4m2a5F3y5E323XMCP/H48WMCNcCd2ccrvXjFgOH87E4hsjYhsTxniSno5LfIh1mjWoHqegN4U8WRrOfptrYh53eE5r+bJtkam6z7PMRs5qsA8kZr6HtX2zeF1ijIfZBK7h/ypyIOyTGuatwE50K0tS+gdDKuSzpnYp2m9wCOBNXgEtN9oglGM8zGL3dgh5CJFzqKSshPuImjg09G7sMukv78kldV/yeKwlnR+FiOUvT9tgam0B/EDQ1yG7mIKMryhow2Ec26k5qG/gF);whiteSpace=wrap;html=1;verticalAlign=middle;spacingTop=0;spacingLeft=5;rotation=0;fontFamily=Times New Roman;fontSize=10;fillColor=none;" vertex="1" parent="1">
          <mxGeometry x="680" y="900" width="10" height="40" as="geometry" />
        </mxCell>
        <mxCell id="xlPUVcPiUmlX-xtXp4R3-91" value="" style="shape=flexArrow;endArrow=classic;html=1;rounded=0;fontFamily=Times New Roman;fontSize=8;startSize=1;endSize=3.1285714285714286;jumpStyle=arc;jumpSize=6;targetPerimeterSpacing=0;width=5.714285714285714;endWidth=7.755102040816325;exitX=1;exitY=0.5;exitDx=0;exitDy=0;entryX=0;entryY=0.25;entryDx=0;entryDy=0;" edge="1" parent="1" source="xlPUVcPiUmlX-xtXp4R3-89" target="xlPUVcPiUmlX-xtXp4R3-90">
          <mxGeometry width="50" height="50" relative="1" as="geometry">
            <mxPoint x="690" y="878" as="sourcePoint" />
            <mxPoint x="690" y="850" as="targetPoint" />
            <Array as="points">
              <mxPoint x="650" y="870" />
              <mxPoint x="650" y="910" />
            </Array>
          </mxGeometry>
        </mxCell>
        <mxCell id="xlPUVcPiUmlX-xtXp4R3-92" value="" style="shape=flexArrow;endArrow=classic;html=1;rounded=0;fontFamily=Times New Roman;fontSize=8;startSize=1;endSize=3.1285714285714286;jumpStyle=arc;jumpSize=6;targetPerimeterSpacing=0;width=5.714285714285714;endWidth=7.755102040816325;exitX=1;exitY=0.5;exitDx=0;exitDy=0;" edge="1" parent="1" source="xlPUVcPiUmlX-xtXp4R3-90">
          <mxGeometry width="50" height="50" relative="1" as="geometry">
            <mxPoint x="740" y="928" as="sourcePoint" />
            <mxPoint x="760" y="920" as="targetPoint" />
          </mxGeometry>
        </mxCell>
        <mxCell id="xlPUVcPiUmlX-xtXp4R3-93" value="o_address" style="edgeLabel;html=1;align=center;verticalAlign=middle;resizable=0;points=[];fontSize=8;fontFamily=Times New Roman;" vertex="1" connectable="0" parent="xlPUVcPiUmlX-xtXp4R3-92">
          <mxGeometry x="0.2898" relative="1" as="geometry">
            <mxPoint x="5" y="-15" as="offset" />
          </mxGeometry>
        </mxCell>
        <mxCell id="xlPUVcPiUmlX-xtXp4R3-94" value="" style="endArrow=classic;html=1;rounded=0;fontFamily=Times New Roman;fontSize=8;startSize=1;endSize=1;targetPerimeterSpacing=0;jumpStyle=arc;jumpSize=6;entryX=0.457;entryY=0.111;entryDx=0;entryDy=0;entryPerimeter=0;" edge="1" parent="1" target="xlPUVcPiUmlX-xtXp4R3-89">
          <mxGeometry width="50" height="50" relative="1" as="geometry">
            <mxPoint x="634.71" y="810" as="sourcePoint" />
            <mxPoint x="635" y="850" as="targetPoint" />
          </mxGeometry>
        </mxCell>
        <mxCell id="xlPUVcPiUmlX-xtXp4R3-95" value="w01_sel" style="edgeLabel;html=1;align=center;verticalAlign=middle;resizable=0;points=[];fontSize=8;fontFamily=Times New Roman;" vertex="1" connectable="0" parent="xlPUVcPiUmlX-xtXp4R3-94">
          <mxGeometry x="-0.77" y="1" relative="1" as="geometry">
            <mxPoint y="-1" as="offset" />
          </mxGeometry>
        </mxCell>
        <mxCell id="xlPUVcPiUmlX-xtXp4R3-96" value="" style="endArrow=classic;html=1;rounded=0;fontFamily=Times New Roman;fontSize=8;startSize=1;endSize=1;targetPerimeterSpacing=0;jumpStyle=arc;jumpSize=6;entryX=0.514;entryY=0.132;entryDx=0;entryDy=0;entryPerimeter=0;" edge="1" parent="1" target="xlPUVcPiUmlX-xtXp4R3-90">
          <mxGeometry width="50" height="50" relative="1" as="geometry">
            <mxPoint x="684.8500000000003" y="860" as="sourcePoint" />
            <mxPoint x="684.7099999999999" y="904.44" as="targetPoint" />
          </mxGeometry>
        </mxCell>
        <mxCell id="xlPUVcPiUmlX-xtXp4R3-97" value="rw_sel" style="edgeLabel;html=1;align=center;verticalAlign=middle;resizable=0;points=[];fontSize=8;fontFamily=Times New Roman;" vertex="1" connectable="0" parent="xlPUVcPiUmlX-xtXp4R3-96">
          <mxGeometry x="-0.77" y="1" relative="1" as="geometry">
            <mxPoint y="-1" as="offset" />
          </mxGeometry>
        </mxCell>
        <mxCell id="xlPUVcPiUmlX-xtXp4R3-98" value="" style="rounded=0;whiteSpace=wrap;html=1;fontFamily=Times New Roman;fontSize=8;fillColor=none;" vertex="1" parent="1">
          <mxGeometry x="90" y="760" width="630" height="320" as="geometry" />
        </mxCell>
        <mxCell id="xlPUVcPiUmlX-xtXp4R3-99" value="&lt;font style=&quot;font-size: 12px&quot;&gt;Memory Manager&lt;/font&gt;" style="text;html=1;align=center;verticalAlign=middle;resizable=0;points=[];autosize=1;strokeColor=none;fillColor=none;fontSize=8;fontFamily=Times New Roman;" vertex="1" parent="1">
          <mxGeometry x="90" y="760" width="100" height="20" as="geometry" />
        </mxCell>
        <mxCell id="xlPUVcPiUmlX-xtXp4R3-100" value="&lt;font style=&quot;font-size: 15px&quot;&gt;Serializer&lt;/font&gt;" style="rounded=0;whiteSpace=wrap;html=1;fontFamily=Times New Roman;fontSize=15;fillColor=none;" vertex="1" parent="1">
          <mxGeometry x="920" y="120" width="120" height="80" as="geometry" />
        </mxCell>
        <mxCell id="xlPUVcPiUmlX-xtXp4R3-101" value="Codificatore Convoluzionale 1/2" style="rounded=0;whiteSpace=wrap;html=1;fontFamily=Times New Roman;fontSize=15;fillColor=none;" vertex="1" parent="1">
          <mxGeometry x="1080" y="120" width="120" height="80" as="geometry" />
        </mxCell>
        <mxCell id="xlPUVcPiUmlX-xtXp4R3-102" value="Deserializer" style="rounded=0;whiteSpace=wrap;html=1;fontFamily=Times New Roman;fontSize=15;fillColor=none;" vertex="1" parent="1">
          <mxGeometry x="1240" y="120" width="120" height="80" as="geometry" />
        </mxCell>
        <mxCell id="xlPUVcPiUmlX-xtXp4R3-103" value="" style="shape=flexArrow;endArrow=classic;html=1;rounded=0;fontFamily=Times New Roman;fontSize=15;startSize=1;endSize=4.356521739130435;targetPerimeterSpacing=0;jumpStyle=arc;jumpSize=6;endWidth=14.782608695652176;entryX=0;entryY=0.5;entryDx=0;entryDy=0;" edge="1" parent="1" target="xlPUVcPiUmlX-xtXp4R3-100">
          <mxGeometry width="50" height="50" relative="1" as="geometry">
            <mxPoint x="860" y="160" as="sourcePoint" />
            <mxPoint x="880" y="160" as="targetPoint" />
          </mxGeometry>
        </mxCell>
        <mxCell id="xlPUVcPiUmlX-xtXp4R3-110" value="i_data" style="edgeLabel;html=1;align=center;verticalAlign=middle;resizable=0;points=[];fontSize=15;fontFamily=Times New Roman;" vertex="1" connectable="0" parent="xlPUVcPiUmlX-xtXp4R3-103">
          <mxGeometry x="-0.5228" relative="1" as="geometry">
            <mxPoint x="-25" y="-17" as="offset" />
          </mxGeometry>
        </mxCell>
        <mxCell id="xlPUVcPiUmlX-xtXp4R3-104" value="" style="endArrow=classic;html=1;rounded=0;fontFamily=Times New Roman;fontSize=15;startSize=6;endSize=6;targetPerimeterSpacing=0;jumpStyle=arc;jumpSize=6;exitX=1;exitY=0.5;exitDx=0;exitDy=0;entryX=0;entryY=0.5;entryDx=0;entryDy=0;" edge="1" parent="1" source="xlPUVcPiUmlX-xtXp4R3-100" target="xlPUVcPiUmlX-xtXp4R3-101">
          <mxGeometry width="50" height="50" relative="1" as="geometry">
            <mxPoint x="1070" y="230" as="sourcePoint" />
            <mxPoint x="1120" y="180" as="targetPoint" />
          </mxGeometry>
        </mxCell>
        <mxCell id="xlPUVcPiUmlX-xtXp4R3-105" value="" style="endArrow=classic;html=1;rounded=0;fontFamily=Times New Roman;fontSize=15;startSize=6;endSize=6;targetPerimeterSpacing=0;jumpStyle=arc;jumpSize=6;entryX=0;entryY=0.25;entryDx=0;entryDy=0;exitX=1;exitY=0.25;exitDx=0;exitDy=0;" edge="1" parent="1" source="xlPUVcPiUmlX-xtXp4R3-101" target="xlPUVcPiUmlX-xtXp4R3-102">
          <mxGeometry width="50" height="50" relative="1" as="geometry">
            <mxPoint x="1210" y="150" as="sourcePoint" />
            <mxPoint x="1240" y="144.63" as="targetPoint" />
          </mxGeometry>
        </mxCell>
        <mxCell id="xlPUVcPiUmlX-xtXp4R3-106" value="" style="endArrow=classic;html=1;rounded=0;fontFamily=Times New Roman;fontSize=15;startSize=6;endSize=6;targetPerimeterSpacing=0;jumpStyle=arc;jumpSize=6;entryX=0;entryY=0.75;entryDx=0;entryDy=0;exitX=1;exitY=0.75;exitDx=0;exitDy=0;" edge="1" parent="1" source="xlPUVcPiUmlX-xtXp4R3-101" target="xlPUVcPiUmlX-xtXp4R3-102">
          <mxGeometry width="50" height="50" relative="1" as="geometry">
            <mxPoint x="1220" y="180" as="sourcePoint" />
            <mxPoint x="1100" y="180" as="targetPoint" />
          </mxGeometry>
        </mxCell>
        <mxCell id="xlPUVcPiUmlX-xtXp4R3-107" value="" style="shape=flexArrow;endArrow=classic;html=1;rounded=0;fontFamily=Times New Roman;fontSize=15;startSize=1;endSize=4.356521739130435;targetPerimeterSpacing=0;jumpStyle=arc;jumpSize=6;endWidth=14.782608695652176;entryX=0;entryY=0.5;entryDx=0;entryDy=0;exitX=1;exitY=0.5;exitDx=0;exitDy=0;" edge="1" parent="1" source="xlPUVcPiUmlX-xtXp4R3-102">
          <mxGeometry width="50" height="50" relative="1" as="geometry">
            <mxPoint x="1370" y="160" as="sourcePoint" />
            <mxPoint x="1420" y="159.57" as="targetPoint" />
          </mxGeometry>
        </mxCell>
        <mxCell id="xlPUVcPiUmlX-xtXp4R3-113" value="o_data" style="edgeLabel;html=1;align=center;verticalAlign=middle;resizable=0;points=[];fontSize=15;fontFamily=Times New Roman;" vertex="1" connectable="0" parent="xlPUVcPiUmlX-xtXp4R3-107">
          <mxGeometry x="0.733" y="-2" relative="1" as="geometry">
            <mxPoint y="-26" as="offset" />
          </mxGeometry>
        </mxCell>
        <mxCell id="xlPUVcPiUmlX-xtXp4R3-108" value="Memory Manager" style="rounded=0;whiteSpace=wrap;html=1;fontFamily=Times New Roman;fontSize=15;fillColor=none;" vertex="1" parent="1">
          <mxGeometry x="920" y="280" width="280" height="120" as="geometry" />
        </mxCell>
        <mxCell id="xlPUVcPiUmlX-xtXp4R3-111" value="" style="shape=flexArrow;endArrow=classic;html=1;rounded=0;fontFamily=Times New Roman;fontSize=15;startSize=1;endSize=4.356521739130435;targetPerimeterSpacing=0;jumpStyle=arc;jumpSize=6;endWidth=14.782608695652176;entryX=0;entryY=0.25;entryDx=0;entryDy=0;" edge="1" parent="1" target="xlPUVcPiUmlX-xtXp4R3-108">
          <mxGeometry width="50" height="50" relative="1" as="geometry">
            <mxPoint x="860" y="310" as="sourcePoint" />
            <mxPoint x="910" y="309" as="targetPoint" />
          </mxGeometry>
        </mxCell>
        <mxCell id="xlPUVcPiUmlX-xtXp4R3-112" value="i_data" style="edgeLabel;html=1;align=center;verticalAlign=middle;resizable=0;points=[];fontSize=15;fontFamily=Times New Roman;" vertex="1" connectable="0" parent="xlPUVcPiUmlX-xtXp4R3-111">
          <mxGeometry x="-0.5228" relative="1" as="geometry">
            <mxPoint x="-25" y="-17" as="offset" />
          </mxGeometry>
        </mxCell>
        <mxCell id="xlPUVcPiUmlX-xtXp4R3-114" value="" style="shape=flexArrow;endArrow=classic;html=1;rounded=0;fontFamily=Times New Roman;fontSize=15;startSize=1;endSize=4.356521739130435;targetPerimeterSpacing=0;jumpStyle=arc;jumpSize=6;endWidth=14.782608695652176;entryX=0;entryY=0.5;entryDx=0;entryDy=0;exitX=1;exitY=0.25;exitDx=0;exitDy=0;" edge="1" parent="1" source="xlPUVcPiUmlX-xtXp4R3-108">
          <mxGeometry width="50" height="50" relative="1" as="geometry">
            <mxPoint x="1210" y="310" as="sourcePoint" />
            <mxPoint x="1260" y="309.99999999999994" as="targetPoint" />
          </mxGeometry>
        </mxCell>
        <mxCell id="xlPUVcPiUmlX-xtXp4R3-115" value="o_address" style="edgeLabel;html=1;align=center;verticalAlign=middle;resizable=0;points=[];fontSize=15;fontFamily=Times New Roman;" vertex="1" connectable="0" parent="xlPUVcPiUmlX-xtXp4R3-114">
          <mxGeometry x="0.733" y="-2" relative="1" as="geometry">
            <mxPoint y="-26" as="offset" />
          </mxGeometry>
        </mxCell>
        <mxCell id="xlPUVcPiUmlX-xtXp4R3-116" value="" style="endArrow=classic;html=1;rounded=0;fontFamily=Times New Roman;fontSize=15;startSize=6;endSize=6;targetPerimeterSpacing=0;jumpStyle=arc;jumpSize=6;entryX=0.5;entryY=0;entryDx=0;entryDy=0;" edge="1" parent="1" target="xlPUVcPiUmlX-xtXp4R3-100">
          <mxGeometry width="50" height="50" relative="1" as="geometry">
            <mxPoint x="980" y="80" as="sourcePoint" />
            <mxPoint x="1000" y="80" as="targetPoint" />
          </mxGeometry>
        </mxCell>
        <mxCell id="xlPUVcPiUmlX-xtXp4R3-117" value="ser_load" style="edgeLabel;html=1;align=center;verticalAlign=middle;resizable=0;points=[];fontSize=15;fontFamily=Times New Roman;" vertex="1" connectable="0" parent="xlPUVcPiUmlX-xtXp4R3-116">
          <mxGeometry x="-0.675" relative="1" as="geometry">
            <mxPoint y="-18" as="offset" />
          </mxGeometry>
        </mxCell>
        <mxCell id="xlPUVcPiUmlX-xtXp4R3-118" value="" style="endArrow=classic;html=1;rounded=0;fontFamily=Times New Roman;fontSize=15;startSize=6;endSize=6;targetPerimeterSpacing=0;jumpStyle=arc;jumpSize=6;exitX=1;exitY=0.5;exitDx=0;exitDy=0;" edge="1" parent="1" source="xlPUVcPiUmlX-xtXp4R3-108">
          <mxGeometry width="50" height="50" relative="1" as="geometry">
            <mxPoint x="1220" y="344.63" as="sourcePoint" />
            <mxPoint x="1260" y="340" as="targetPoint" />
          </mxGeometry>
        </mxCell>
        <mxCell id="xlPUVcPiUmlX-xtXp4R3-119" value="o_done" style="edgeLabel;html=1;align=center;verticalAlign=middle;resizable=0;points=[];fontSize=15;fontFamily=Times New Roman;" vertex="1" connectable="0" parent="xlPUVcPiUmlX-xtXp4R3-118">
          <mxGeometry x="0.6143" y="-1" relative="1" as="geometry">
            <mxPoint y="19" as="offset" />
          </mxGeometry>
        </mxCell>
        <mxCell id="xlPUVcPiUmlX-xtXp4R3-120" value="" style="endArrow=classic;html=1;rounded=0;fontFamily=Times New Roman;fontSize=15;startSize=6;endSize=6;targetPerimeterSpacing=0;jumpStyle=arc;jumpSize=6;entryX=0;entryY=0.5;entryDx=0;entryDy=0;" edge="1" parent="1" target="xlPUVcPiUmlX-xtXp4R3-108">
          <mxGeometry width="50" height="50" relative="1" as="geometry">
            <mxPoint x="860" y="340" as="sourcePoint" />
            <mxPoint x="970" y="470" as="targetPoint" />
          </mxGeometry>
        </mxCell>
        <mxCell id="xlPUVcPiUmlX-xtXp4R3-125" value="rmr_sel" style="edgeLabel;html=1;align=center;verticalAlign=middle;resizable=0;points=[];fontSize=15;fontFamily=Times New Roman;" vertex="1" connectable="0" parent="xlPUVcPiUmlX-xtXp4R3-120">
          <mxGeometry x="-0.7" y="2" relative="1" as="geometry">
            <mxPoint x="-37" y="1" as="offset" />
          </mxGeometry>
        </mxCell>
        <mxCell id="xlPUVcPiUmlX-xtXp4R3-121" value="" style="endArrow=classic;html=1;rounded=0;fontFamily=Times New Roman;fontSize=15;startSize=6;endSize=6;targetPerimeterSpacing=0;jumpStyle=arc;jumpSize=6;entryX=0;entryY=0.75;entryDx=0;entryDy=0;" edge="1" parent="1" target="xlPUVcPiUmlX-xtXp4R3-108">
          <mxGeometry width="50" height="50" relative="1" as="geometry">
            <mxPoint x="860" y="370" as="sourcePoint" />
            <mxPoint x="910" y="370" as="targetPoint" />
          </mxGeometry>
        </mxCell>
        <mxCell id="xlPUVcPiUmlX-xtXp4R3-126" value="rmr_load" style="edgeLabel;html=1;align=center;verticalAlign=middle;resizable=0;points=[];fontSize=15;fontFamily=Times New Roman;" vertex="1" connectable="0" parent="xlPUVcPiUmlX-xtXp4R3-121">
          <mxGeometry x="-0.6" y="1" relative="1" as="geometry">
            <mxPoint x="-44" y="1" as="offset" />
          </mxGeometry>
        </mxCell>
        <mxCell id="xlPUVcPiUmlX-xtXp4R3-122" value="" style="endArrow=classic;html=1;rounded=0;fontFamily=Times New Roman;fontSize=15;startSize=6;endSize=6;targetPerimeterSpacing=0;jumpStyle=arc;jumpSize=6;entryX=0.25;entryY=1;entryDx=0;entryDy=0;" edge="1" parent="1" target="xlPUVcPiUmlX-xtXp4R3-108">
          <mxGeometry width="50" height="50" relative="1" as="geometry">
            <mxPoint x="990" y="450" as="sourcePoint" />
            <mxPoint x="930" y="380" as="targetPoint" />
          </mxGeometry>
        </mxCell>
        <mxCell id="xlPUVcPiUmlX-xtXp4R3-127" value="ri_load" style="edgeLabel;html=1;align=center;verticalAlign=middle;resizable=0;points=[];fontSize=15;fontFamily=Times New Roman;" vertex="1" connectable="0" parent="xlPUVcPiUmlX-xtXp4R3-122">
          <mxGeometry x="-0.58" y="-2" relative="1" as="geometry">
            <mxPoint y="21" as="offset" />
          </mxGeometry>
        </mxCell>
        <mxCell id="xlPUVcPiUmlX-xtXp4R3-123" value="" style="endArrow=classic;html=1;rounded=0;fontFamily=Times New Roman;fontSize=15;startSize=6;endSize=6;targetPerimeterSpacing=0;jumpStyle=arc;jumpSize=6;entryX=0.5;entryY=1;entryDx=0;entryDy=0;" edge="1" parent="1" target="xlPUVcPiUmlX-xtXp4R3-108">
          <mxGeometry width="50" height="50" relative="1" as="geometry">
            <mxPoint x="1060" y="450" as="sourcePoint" />
            <mxPoint x="1040" y="410" as="targetPoint" />
          </mxGeometry>
        </mxCell>
        <mxCell id="xlPUVcPiUmlX-xtXp4R3-128" value="w01_sel" style="edgeLabel;html=1;align=center;verticalAlign=middle;resizable=0;points=[];fontSize=15;fontFamily=Times New Roman;" vertex="1" connectable="0" parent="xlPUVcPiUmlX-xtXp4R3-123">
          <mxGeometry x="-0.54" y="-2" relative="1" as="geometry">
            <mxPoint x="-2" y="22" as="offset" />
          </mxGeometry>
        </mxCell>
        <mxCell id="xlPUVcPiUmlX-xtXp4R3-124" value="" style="endArrow=classic;html=1;rounded=0;fontFamily=Times New Roman;fontSize=15;startSize=6;endSize=6;targetPerimeterSpacing=0;jumpStyle=arc;jumpSize=6;entryX=0.75;entryY=1;entryDx=0;entryDy=0;" edge="1" parent="1" target="xlPUVcPiUmlX-xtXp4R3-108">
          <mxGeometry width="50" height="50" relative="1" as="geometry">
            <mxPoint x="1130" y="450" as="sourcePoint" />
            <mxPoint x="1130" y="415" as="targetPoint" />
          </mxGeometry>
        </mxCell>
        <mxCell id="xlPUVcPiUmlX-xtXp4R3-129" value="rw_sel" style="edgeLabel;html=1;align=center;verticalAlign=middle;resizable=0;points=[];fontSize=15;fontFamily=Times New Roman;" vertex="1" connectable="0" parent="xlPUVcPiUmlX-xtXp4R3-124">
          <mxGeometry x="-0.54" y="-1" relative="1" as="geometry">
            <mxPoint y="22" as="offset" />
          </mxGeometry>
        </mxCell>
      </root>
    </mxGraphModel>
  </diagram>
</mxfile>
